<?xml version="1.0" standalone="no"?>
<!DOCTYPE svg PUBLIC "-//W3C//DTD SVG 1.1//EN" "http://www.w3.org/Graphics/SVG/1.1/DTD/svg11.dtd" >
<svg>
<metadata>
Created by FontForge 20090622 at Fri Feb 12 10:57:42 2016
 By deploy user
Copyright (c) 2011 by Hipopotam Studio. All rights reserved.
</metadata>
<defs>
<font id="MrsWhite" horiz-adv-x="909" >
  <font-face
    font-family="Mrs White"
    font-weight="400"
    font-stretch="normal"
    units-per-em="2048"
    panose-1="0 0 0 0 0 0 0 0 0 0"
    ascent="1536"
    descent="-512"
    x-height="1319"
    cap-height="1321"
    bbox="-104 -547 1982.47 1784"
    underline-thickness="102"
    underline-position="-102"
    unicode-range="U+000D-U+25FC"
  />
<missing-glyph horiz-adv-x="1124"
d="M92 80v1560q0 34 24 58t58 24h764q34 0 58 -24t24 -58v-1560q0 -32 -24 -56t-58 -24h-764q-34 0 -58 24t-24 56zM254 162h604v1399h-604v-1399z" />
    <glyph glyph-name=".notdef" horiz-adv-x="1124"
d="M92 80v1560q0 34 24 58t58 24h764q34 0 58 -24t24 -58v-1560q0 -32 -24 -56t-58 -24h-764q-34 0 -58 24t-24 56zM254 162h604v1399h-604v-1399z" />
    <glyph glyph-name=".notdef" horiz-adv-x="1124"
d="M92 80v1560q0 34 24 58t58 24h764q34 0 58 -24t24 -58v-1560q0 -32 -24 -56t-58 -24h-764q-34 0 -58 24t-24 56zM254 162h604v1399h-604v-1399z" />
    <glyph glyph-name="glyph1" horiz-adv-x="0"
 />
    <glyph glyph-name="uni000D" unicode="&#xd;" horiz-adv-x="2048"
 />
    <glyph glyph-name="space" unicode=" " horiz-adv-x="655"
 />
    <glyph glyph-name="exclam" unicode="!" horiz-adv-x="481"
d="M135 113q3 43 35.5 72t75.5 26q44 -1 73.5 -34.5t26.5 -76.5q-3 -44 -36 -73t-77 -27q-43 3 -72 36t-26 77zM160 391v854q0 32 23 53t57 21t56.5 -21t22.5 -53v-854q0 -33 -22 -50t-57 -17t-57.5 17.5t-22.5 49.5z" />
    <glyph glyph-name="quotedbl" unicode="&#x22;" horiz-adv-x="614"
d="M27 1245v258q0 33 23 53.5t56 20.5q35 0 58.5 -20.5t23.5 -53.5v-258q0 -33 -23.5 -51t-58.5 -18q-34 0 -56.5 18.5t-22.5 50.5zM289 1245v258q0 33 23.5 53.5t56.5 20.5q35 0 58.5 -20.5t23.5 -53.5v-258q0 -33 -23.5 -51t-58.5 -18q-34 0 -57 18.5t-23 50.5z" />
    <glyph glyph-name="numbersign" unicode="#" horiz-adv-x="2109"
d="M0 887q-3 35 13.5 58t49.5 26l603 49l200 557q10 30 39.5 41t59.5 0q33 -11 48 -37.5t5 -58.5l-176 -488l602 49l176 494q12 30 41 41t59 0q33 -11 48.5 -37.5t3.5 -58.5l-152 -424l287 24q33 3 52.5 -16.5t22.5 -54.5q3 -36 -13 -61.5t-48 -28.5l-360 -29l-129 -354
l475 38q66 3 73 -71q3 -36 -12 -61.5t-47 -28.5l-549 -45l-178 -498q-16 -43 -72 -43q-10 0 -26 4q-34 13 -50 38t-4 56l154 428l-600 -49l-158 -434q-13 -43 -69 -43q-11 0 -27 4q-34 12 -49.5 37.5t-5.5 56.5l133 365l-344 -27h-6q-30 0 -47.5 20.5t-20.5 53.5
q-3 35 12.5 59t48.5 27l416 35l127 354l-530 -43h-6q-30 0 -48.5 21.5t-21.5 54.5zM655 514l600 49l129 355l-602 -50z" />
    <glyph glyph-name="dollar" unicode="$" horiz-adv-x="802"
d="M66 233q-19 60 55 84q30 11 59 2.5t39 -38.5q30 -99 109 -125v524q-90 63 -133 115q-95 114 -95 229q0 110 66 189t162 104v86q0 63 80 63q36 0 58.5 -15.5t22.5 -47.5v-86q122 -24 183 -109q38 -53 -15 -100q-62 -55 -106 -6q-32 35 -62 49v-383l11 -6q128 -83 180 -160
q56 -85 59 -217q6 -211 -96 -313q-66 -66 -154 -80v-70q0 -32 -22.5 -49.5t-56.5 -17.5q-36 0 -59 17.5t-23 49.5v72q-88 11 -152 63q-76 64 -110 176zM256 1024q-3 -72 72 -139v264q-72 -40 -72 -125zM489 158q23 10 39 26q55 55 52 197q-3 66 -21.5 108t-69.5 82v-413z
" />
    <glyph glyph-name="percent" unicode="%" horiz-adv-x="1394"
d="M20 1223q0 130 82 221q87 96 220 96q129 0 219 -96q82 -95 82 -221q0 -130 -82 -222q-87 -96 -219 -96q-136 0 -220 96q-82 88 -82 222zM182 1223q0 -63 37.5 -110.5t102.5 -47.5t102 47.5t37 110.5t-37 109t-102 46t-102.5 -46t-37.5 -109zM228 -31.5q-11 31.5 3 62.5
l766 1540q15 29 47.5 39.5t61.5 -4.5q30 -13 40.5 -45.5t-3.5 -61.5l-766 -1540q-22 -45 -72 -45q-21 0 -37 8q-29 15 -40 46.5zM754 319q0 131 82 222q87 96 219 96q130 0 217 -96q82 -91 82 -222q0 -133 -82 -221q-87 -96 -217 -96q-132 0 -219 96q-82 88 -82 221z
M913 319q0 -63 38 -109t104 -46q64 0 101.5 46t37.5 109t-37.5 109.5t-101.5 46.5q-65 0 -103.5 -46.5t-38.5 -109.5z" />
    <glyph glyph-name="ampersand" unicode="&#x26;" horiz-adv-x="1236"
d="M178 401q12 92 62.5 183.5t134.5 201.5q-129 233 -137 408q-7 171 96 274q46 47 108.5 71.5t128.5 21.5q108 -3 187 -95q42 -49 61.5 -112t11.5 -125q-4 -44 -15 -79.5t-39 -83t-49 -77.5l-75 -104l-16 -21q-12 -18 -37.5 -50.5t-30.5 -39.5q20 -30 52 -72
q65 -91 172 -208q40 128 47 229q3 31 28 48.5t58 14.5q34 -3 55 -24t20 -53q-15 -156 -81 -344q139 -139 247 -218q26 -22 26 -51t-22 -57q-19 -28 -45 -34.5t-53 13.5q-93 66 -223 189q-63 -112 -150 -171t-190 -59q-28 0 -72 7q-128 25 -207 161q-71 127 -53 256zM336 379
q-9 -74 33 -150t100 -86q157 -32 256 176q4 4 4 7q-138 145 -240 280l-22 33q-116 -155 -131 -260zM399 1202q3 -114 84 -276l12.5 16l12.5 16l16 23q86 116 114 165.5t34 102.5q10 63 -37 113q-27 36 -70 39h-6q-65 0 -110 -45q-56 -56 -50 -154z" />
    <glyph glyph-name="quotesingle" unicode="'" horiz-adv-x="352"
d="M27 1245v258q0 33 23 53.5t56 20.5q35 0 58.5 -20.5t23.5 -53.5v-258q0 -33 -23.5 -51t-58.5 -18q-34 0 -56.5 18.5t-22.5 50.5z" />
    <glyph glyph-name="parenleft" unicode="(" horiz-adv-x="475"
d="M6 750q0 154 12.5 265t46.5 211t77 181t118 197q18 27 50 31t59 -15q28 -19 36 -49t-10 -58q-130 -195 -180.5 -366.5t-48.5 -394.5q3 -210 62 -396t180 -391q17 -30 7 -59t-40 -47q-22 -11 -41 -11q-46 0 -66 35q-69 115 -111.5 200t-80 190t-54 221t-16.5 256z" />
    <glyph glyph-name="parenright" unicode=")" horiz-adv-x="501"
d="M50 -94q-10 29 7 59q121 205 180 391t62 396q2 223 -48.5 394.5t-180.5 366.5q-18 28 -10 58t36 49q27 19 59 15t50 -31q75 -116 118 -197t77 -181t46.5 -211t12.5 -265q0 -140 -16.5 -256t-54 -221t-80 -190t-111.5 -200q-20 -35 -66 -35q-19 0 -41 11q-30 18 -40 47z
" />
    <glyph glyph-name="asterisk" unicode="*" horiz-adv-x="702"
d="M4 1436q11 33 37.5 47t58.5 4l160 -53v170q0 32 23.5 52.5t56.5 20.5q34 0 57 -20.5t23 -52.5v-170l162 53q30 10 56.5 -5t37.5 -48q9 -32 -3 -61.5t-42 -39.5l-160 -51l98 -137q20 -27 13 -56.5t-35 -50.5q-22 -16 -47 -16q-42 0 -62 29l-98 135l-98 -135
q-20 -29 -62 -29q-25 0 -47 16q-28 21 -35 50.5t13 56.5l98 137l-160 51q-30 10 -42 40t-3 63z" />
    <glyph glyph-name="plus" unicode="+" horiz-adv-x="839"
d="M41 709q0 33 23.5 56t56.5 23h217v220q0 32 24 55.5t58 23.5q32 0 56 -23.5t24 -55.5v-220h217q34 0 58 -23t24 -56q0 -34 -24 -57t-58 -23h-217v-217q0 -34 -24 -58t-56 -24q-34 0 -58 24t-24 58v217h-217q-33 0 -56.5 23.5t-23.5 56.5z" />
    <glyph glyph-name="comma" unicode="," horiz-adv-x="497"
d="M134 -212.5q-11 27.5 5 56.5q44 72 60 138t16 178q0 33 23.5 51t58.5 18t56.5 -18t21.5 -51q0 -129 -19 -216t-77 -184q-19 -30 -62 -30q-23 0 -41 12q-31 18 -42 45.5z" />
    <glyph glyph-name="hyphen" unicode="-" horiz-adv-x="600"
d="M41 709q0 33 23.5 56t56.5 23h356q34 0 58 -23t24 -56q0 -34 -24 -57t-58 -23h-356q-33 0 -56.5 23.5t-23.5 56.5z" />
    <glyph glyph-name="period" unicode="." horiz-adv-x="514"
d="M178 113q3 43 35.5 72t75.5 26q44 -1 73.5 -34.5t26.5 -76.5q-3 -44 -36 -73t-77 -27q-43 3 -72 36t-26 77z" />
    <glyph glyph-name="slash" unicode="/" horiz-adv-x="804"
d="M158 -154l491 1696q9 31 34.5 41.5t59.5 1.5q33 -10 51 -33.5t9 -54.5l-490 -1696q-7 -22 -20 -31t-37 -12q-21 -3 -37 2q-34 10 -52 32.5t-9 53.5z" />
    <glyph glyph-name="zero" unicode="0"
d="M92 694q0 243 78 416q44 100 109 156q76 67 176 67q99 0 174 -63q64 -50 110 -150q78 -177 78 -426q0 -270 -76 -461q-38 -105 -104 -174q-80 -77 -182 -77t-181 73q-64 64 -106 168q-76 191 -76 471zM252 694q0 -246 65 -411q56 -142 138 -142q74 0 137 150
q63 160 63 403q0 224 -63 359q-53 121 -137 121q-79 0 -138 -130q-65 -143 -65 -350z" />
    <glyph glyph-name="one" unicode="1" horiz-adv-x="692"
d="M53 877.5q-4 27.5 19 52.5l360 368q17 18 41 23t45 -4q23 -9 37 -29t14 -45v-1177q0 -32 -23 -49t-57 -17q-36 0 -58.5 17t-22.5 49v978l-222 -227q-24 -22 -51 -19t-53 27q-25 25 -29 52.5z" />
    <glyph glyph-name="two" unicode="2" horiz-adv-x="931"
d="M74 86q13 88 41 169t58 138.5t77 120.5t78.5 98t81.5 86l71.5 73.5t54 67t44.5 76.5q23 55 22.5 106t-22.5 85q-38 53 -119 53q-164 0 -176 -178q-3 -33 -28.5 -47.5t-63.5 -11.5q-37 3 -58 21t-18 50q8 124 78 215q97 119 266 119q84 0 150.5 -33t107.5 -96
q46 -69 50 -161.5t-34 -184.5q-21 -51 -58 -103.5t-64.5 -82l-82.5 -86.5l-87.5 -90t-73.5 -93.5t-68 -117.5q36 3 80 -7q60 -14 129 -65q44 -35 84 -39q9 -4 27 -1t36.5 9t34.5 28t21 56q6 33 31.5 45t62.5 6q37 -5 57.5 -23.5t14.5 -51.5q-19 -130 -121 -197
q-65 -41 -148 -41q-6 0 -18.5 1t-18.5 1q-38 5 -72.5 19t-48 23t-42.5 30q-39 31 -66 37q-72 15 -108 -58q-14 -30 -33 -43.5t-58 -7.5q-35 5 -56 28.5t-15 57.5z" />
    <glyph glyph-name="three" unicode="3" horiz-adv-x="884"
d="M94 297q-3 32 17 49.5t55 20.5q82 7 88 -56q5 -61 51 -113.5t121 -52.5q85 0 137 52q74 77 68 258q-3 104 -66 155q-42 33 -108.5 42.5t-110.5 4.5t-47 -8q-25 -5 -48 5t-36 32q-29 47 4 92l301 385l-334 2q-32 0 -47.5 22.5t-15.5 57.5q0 36 15.5 59t47.5 23l500 -2
q49 0 72 -45q20 -48 -8 -86l-297 -379q127 -12 211 -78q55 -44 90 -112q34 -69 37 -164q9 -249 -111 -375q-100 -100 -254 -100q-141 0 -236 100q-87 94 -96 211z" />
    <glyph glyph-name="four" unicode="4" horiz-adv-x="831"
d="M57 512l8 23l20.5 61l25.5 81.5t25 92.5t18 86q36 222 30 401q-1 32 20.5 49t57.5 19t59.5 -13.5t24.5 -47.5q6 -195 -33 -433q-21 -129 -69 -266h209v359q0 32 23 48.5t59 16.5q34 0 56.5 -16.5t22.5 -48.5v-359h121q31 0 48.5 -22.5t17.5 -57.5t-17 -57t-49 -22h-121
v-340q0 -32 -22.5 -50t-56.5 -18q-35 0 -58.5 18t-23.5 50v337h-320q-43 0 -67 35q-25 35 -9 74z" />
    <glyph glyph-name="five" unicode="5" horiz-adv-x="851"
d="M119 205q-10 30 4.5 53.5t46.5 32.5q32 12 62 3t40 -40q37 -115 154 -115q53 0 93.5 38.5t61 94t25.5 119.5q7 120 -26 195q-38 84 -107 102q-76 18 -135 -24q-13 -10 -24 -22.5t-16 -19.5t-5 -8q-13 -23 -39 -32.5t-53 -1.5q-26 6 -43 27.5t-17 47.5v586q0 34 24 57
t58 23h424q33 0 50.5 -22.5t17.5 -57.5t-17.5 -57.5t-50.5 -22.5h-344v-334q99 44 209 17q149 -38 215 -197q51 -119 39 -268q-12 -155 -92 -268q-46 -64 -110 -99t-138 -35q-110 0 -191 60t-116 168z" />
    <glyph glyph-name="six" unicode="6" horiz-adv-x="862"
d="M88 752q9 280 109 428q52 80 112 111.5t113 33.5q109 6 182 -35q73 -39 113 -112q32 -54 -37 -95q-73 -37 -105 17q-37 72 -145 65q-67 -3 -120.5 -112t-61.5 -310q0 -10 -1 -31.5t-1 -33.5q80 53 186 59q150 5 240.5 -76t103.5 -231q21 -233 -82 -348q-90 -96 -252 -96
q-140 0 -227 90q-91 97 -117 286q-22 151 -10 390zM266 336q23 -105 66 -148q40 -43 110 -43q88 0 133 45q56 63 41 226q-9 83 -45 119q-40 43 -133 40q-83 0 -133 -57q-51 -60 -39 -168v-14z" />
    <glyph glyph-name="seven" unicode="7" horiz-adv-x="815"
d="M33 1061q-3 88 22 151q47 98 152 113q58 9 106 -22q18 -10 58 -50q17 -19 26 -27t24.5 -16t33.5 -10q60 -4 91 19t62 81q15 28 48.5 33.5t60.5 -12.5q69 -45 35 -100q-45 -68 -107.5 -200t-99.5 -286h119q32 0 55.5 -23.5t23.5 -56.5t-23.5 -56.5t-55.5 -23.5h-148
q-19 -157 -24 -423q-3 -46 -3 -95q-1 -11 -3.5 -18t-10 -17.5t-24.5 -16t-43 -5.5q-80 0 -80 66q2 18 2 90q5 257 24 419h-133q-33 0 -56.5 23.5t-23.5 56.5t23.5 56.5t56.5 23.5h158q29 130 84 275q2 5 7 16t7 16q-59 -4 -105 14.5t-66.5 42.5l-39.5 45t-30 21
q-45 0 -41 -98q0 -55 -78 -59q-45 -3 -63.5 14t-20.5 39z" />
    <glyph glyph-name="eight" unicode="8" horiz-adv-x="874"
d="M88 403q14 89 70.5 166t146.5 156q-55 51 -78 82q-80 91 -92 197q-12 144 76 241q40 46 97 71t120 25q144 0 231 -96q87 -90 78 -237q-5 -77 -52 -144t-128 -139q72 -59 123 -115q91 -102 106 -209q24 -191 -77 -305q-97 -114 -277 -114q-167 0 -268 116
q-104 119 -76 305zM248 379q-18 -109 39 -176q51 -60 145 -60q103 0 156 58q54 63 39 178q-3 26 -16.5 52t-29 47t-44 49t-48.5 46t-57 48q-81 -68 -128.5 -125.5t-55.5 -116.5zM295 1020q10 -82 135 -191q143 119 148 189q3 78 -35 119q-43 43 -115 43q-60 0 -98 -41
q-41 -47 -35 -119z" />
    <glyph glyph-name="nine" unicode="9" horiz-adv-x="849"
d="M82 969q0 167 96 268q95 100 252 100q148 0 227 -82q42 -42 66.5 -103t33 -135t10.5 -166.5t-1 -197.5q-2 -171 -12 -279t-37 -186q-71 -213 -285 -213q-139 0 -227 76q-71 62 -107 172q-10 29 5.5 49.5t48.5 30.5q82 27 98 -31q25 -74 67 -105.5t115 -31.5q53 0 83 23.5
t50 81.5q37 107 41 444q-77 -51 -186 -51q-136 0 -230 82q-108 95 -108 254zM242 969q0 -89 53.5 -132.5t124.5 -43.5q85 0 131 53q53 56 41 172v10q-16 82 -49 115q-35 35 -113 35q-89 0 -138.5 -54.5t-49.5 -154.5z" />
    <glyph glyph-name="colon" unicode=":" horiz-adv-x="481"
d="M166 113q3 43 35 72t75 26q44 -1 74 -34.5t27 -76.5q-3 -44 -36 -73t-77 -27q-43 3 -72 36t-26 77zM166 717q3 43 35 72t75 26q44 -1 74 -34t27 -76q-3 -44 -36 -73.5t-77 -27.5q-43 3 -72 36t-26 77z" />
    <glyph glyph-name="semicolon" unicode=";" horiz-adv-x="495"
d="M134 -212.5q-11 27.5 5 56.5q44 72 60 138t16 178q0 33 23.5 51t58.5 18t56.5 -18t21.5 -51q0 -129 -19 -216t-77 -184q-19 -30 -62 -30q-23 0 -41 12q-31 18 -42 45.5zM180 717q3 43 35.5 72t75.5 26q44 -1 73.5 -34t26.5 -76q-3 -44 -35.5 -73.5t-76.5 -27.5
q-43 3 -72.5 36t-26.5 77z" />
    <glyph glyph-name="less" unicode="&#x3c;" horiz-adv-x="663"
d="M41 709q0 32 22 57l422 422q25 23 54.5 22t52.5 -26q24 -24 27 -54.5t-19 -56.5l-367 -364l367 -367q23 -24 21 -53t-27 -53q-24 -24 -53.5 -27.5t-55.5 18.5l-422 422q-22 25 -22 60z" />
    <glyph glyph-name="equal" unicode="=" horiz-adv-x="839"
d="M41 549q0 33 23.5 56.5t56.5 23.5h596q34 0 58 -23t24 -57t-24 -57t-58 -23h-596q-33 0 -56.5 23.5t-23.5 56.5zM41 868q0 33 23.5 56.5t56.5 23.5h596q34 0 58 -23t24 -57t-24 -57t-58 -23h-596q-33 0 -56.5 23.5t-23.5 56.5z" />
    <glyph glyph-name="greater" unicode="&#x3e;" horiz-adv-x="663"
d="M42.5 289q-2.5 29 20.5 53l367 367l-367 364q-22 26 -18.5 56.5t27.5 54.5q23 25 53 26t53 -22l422 -422q23 -23 23 -57q0 -37 -23 -60l-422 -422q-24 -22 -54 -18.5t-54 27.5q-25 24 -27.5 53z" />
    <glyph glyph-name="question" unicode="?" horiz-adv-x="751"
d="M41 991q0 143 90 236.5t229 93.5q153 0 242 -86q88 -85 88 -221q0 -53 -14 -99t-43 -84t-51 -60.5t-60 -55.5q-53 -48 -75.5 -77.5t-22.5 -64.5v-180q0 -33 -22.5 -51t-57.5 -18t-57.5 18t-22.5 51v180q0 45 12.5 84t39.5 74t46 54t54 51q61 52 87.5 89.5t26.5 88.5
q0 66 -38 104q-44 41 -132 41q-72 0 -115.5 -46t-43.5 -122q0 -31 -22.5 -48t-57.5 -17t-57.5 17t-22.5 48zM236 111q3 43 35.5 72t76.5 26q43 -1 72 -34.5t26 -76.5t-35 -72t-75 -26q-44 1 -73 34.5t-27 76.5z" />
    <glyph glyph-name="at" unicode="@" horiz-adv-x="1427"
d="M-4 793q52 214 188 360q72 78 176 129t224 68q232 36 413 -54q130 -65 217 -180q94 -121 125 -262q32 -146 0 -293q-41 -198 -188 -258q-106 -45 -233 -6q-8 2 -20 6.5t-15 5.5q-71 -66 -193 -69h-10q-128 0 -213 88q-50 50 -77.5 117t-27.5 139q3 138 70 233
q90 125 254 125h14q158 -5 236 -127q55 -88 55 -213q0 -76 -22 -147q67 -28 118 -6q73 30 95 145q25 116 0 225q-23 106 -93 197t-163 137q-85 42 -199.5 46t-232 -36.5t-193.5 -120.5q-48 -51 -85 -121t-61 -158.5t-20.5 -197.5t39.5 -219q27 -81 72.5 -144t97 -101.5
t115.5 -64t120.5 -35.5t118.5 -13q91 -5 179.5 5t188 40t194 95t167.5 161q20 27 52 29t59 -19t32.5 -50t-14.5 -56q-163 -214 -407 -302q-177 -67 -391 -67q-45 0 -68 2q-229 12 -399 117q-195 124 -271 354q-81 250 -24 496zM524 582q0 -38 16 -77t42 -65q41 -41 98 -41h4
q19 1 30 2.5t36 13t39.5 30.5t27 60t12.5 97q0 178 -135 178h-8q-81 0 -123 -57q-39 -55 -39 -141z" />
    <glyph glyph-name="A" unicode="A" horiz-adv-x="864"
d="M63 72q0 6 13 69.5t45 201.5l72 298q22 87 49.5 184l51 173.5l43.5 140.5t32 99l12 36q13 40 70 47h9q60 0 75 -51q24 -77 74 -279t87 -375q31 -145 57.5 -281t37 -198t10.5 -65q1 -8 1 -16q0 -22 -13 -38q-18 -21 -52 -24q-7 -1 -14 -1q-25 -1 -49 13q-30 18 -33 47
q-14 93 -86 449l-233 -10l-55.5 -237.5t-35.5 -159t-10 -50.5q-7 -32 -35 -43q-17 -7 -38 -7q-13 0 -27 3q-60 11 -60 58q0 8 2 16zM362 655l160 7q-39 177 -71 303q-47 -148 -89 -310z" />
    <glyph glyph-name="B" unicode="B" horiz-adv-x="876"
d="M135 84q1 2 4 88.5t5.5 239t2.5 293.5q0 50 -1 100t-1.5 92.5t-1.5 83t-2 73.5t-2 62.5t-1.5 51t-1 37t-0.5 23.5l-1 9v7q0 29 23 52q22 25 57 25h64q52 1 98 1t96 -8t90 -24q82 -36 125 -102q44 -69 47 -182q1 -21 0 -40q0 -83 -10 -132q-18 -81 -68 -134q32 -16 54 -38
q94 -91 94 -273q0 -213 -94 -303q-67 -67 -187 -82q-58 -6 -125 -6q-59 0 -90 2h-92q-30 0 -59 25q-23 26 -23 59zM299 160q54 -1 98 -1q22 1 41 1q58 0 98.5 10t61.5 31q47 47 47 188q0 111 -45 156q-64 61 -273 61h-20q0 -254 -8 -446zM299 1161q8 -164 8 -391
q196 3 236 43q32 35 32 165v23q-3 67 -22 97t-51 43q-45 21 -162 21q-20 0 -41 -1z" />
    <glyph glyph-name="C" unicode="C" horiz-adv-x="815"
d="M92 698q0 259 64 414q40 100 110 158q79 67 189 67q90 0 147 -32q52 -28 100 -88q19 -28 11 -53.5t-37 -47.5q-30 -25 -55 -25t-46 25q-27 35 -51 48.5t-69 13.5q-99 0 -150 -127q-51 -119 -51 -353q0 -307 44.5 -430t156.5 -123q101 0 149 80q20 30 50 30q24 0 53 -19
q30 -18 40 -42q4 -9 4 -19q0 -16 -10 -34q-94 -155 -286 -155q-125 0 -205 71q-71 60 -109 174q-49 149 -49 467z" />
    <glyph glyph-name="D" unicode="D" horiz-adv-x="880"
d="M133 1241q0 34 23 57q21 24 90 27q120 0 209 -27q102 -29 178 -102q153 -150 162 -489q2 -49 2 -94q0 -141 -19 -244q-28 -154 -110 -236q-74 -77 -187 -106q-67 -17 -143 -23q-55 -4 -89 -5q-12 0 -22 1q-43 3 -65 25q-23 26 -23 59v4q7 224 7 436q0 85 -1 168l-2 121.5
t-2 114.5t-2.5 101t-2.5 87t-1.5 66t-0.5 44zM297 1161q1 -29 3 -114.5l4 -177t3 -175.5v-109q0 -175 -4 -421q179 9 250 80q49 52 69 160q15 83 14 214q0 40 -1 84q-9 276 -115 379q-74 71 -223 80z" />
    <glyph glyph-name="E" unicode="E" horiz-adv-x="751"
d="M135 84q1 2 4 88.5t5.5 239t2.5 293.5q0 50 -1 99.5t-1.5 92t-1.5 83t-2 74t-2 62.5t-1.5 51t-1 37.5t-0.5 23.5l-1 9v7q0 29 23 52q22 25 57 25q40 0 82 0.5t77 1l68.5 1t59.5 1t45 1t30 0.5l11 1h3q29 -1 43 -21q15 -22 17 -57.5t-12 -58.5t-45 -23l-8 -1
q-8 0 -23 -0.5t-35 -1t-46 -1l-54 -1t-62 -1t-67 -0.5q8 -160 8 -375l209 5q60 0 64 -80q0 -36 -14.5 -59t-45.5 -23l-213 -4q0 -265 -8 -461l322 4h2q31 0 48 -22t17 -56v-7q0 -29 -16 -51q-18 -24 -49 -24q-335 -8 -392 -8q-49 3 -71 25q-25 25 -25 59z" />
    <glyph glyph-name="F" unicode="F" horiz-adv-x="700"
d="M133 1237q0 36 23 59q22 25 57 25q40 0 82 0.5t77 1l68.5 1t59.5 1t45 1t30 0.5l11 1h3q27 0 41 -20q14 -21 17 -58v-9q1 -30 -11 -50q-14 -23 -44 -23l-8 -1q-8 0 -23 -0.5t-35 -1t-46 -1l-54 -1t-62 -1t-67 -0.5q8 -160 8 -375l209 5q32 0 49 -22t17 -58t-15.5 -59
t-46.5 -23l-213 -4q0 -46 -0.5 -94.5t-1 -92l-1 -86.5t-1.5 -80t-2 -70t-1.5 -59t-1 -44.5t-0.5 -28.5l-1 -11q0 -23 -17.5 -41t-64.5 -18q-45 0 -62.5 21t-15.5 45l1 12q0 12 0.5 34t1 51.5t1.5 67.5t2 80t1.5 90.5l1 97.5l1 102.5t0.5 103.5t-0.5 99.5t-1 92t-1.5 83
t-2 74t-2 62.5t-2 51t-1.5 37.5t-0.5 23.5z" />
    <glyph glyph-name="G" unicode="G" horiz-adv-x="888"
d="M94 700q3 239 82 418q50 101 111 154q77 65 176 65q173 0 248 -123q9 -16 9 -31q0 -33 -44 -61q-33 -21 -57 -21q-29 0 -46 29q-15 25 -38 36.5t-72 11.5q-83 0 -139 -127q-65 -136 -68 -353v-41q0 -174 23 -282q25 -131 79 -185q45 -45 119 -45t101 31q27 27 40 98.5
t15 137.5t2 204l-186 -6q-32 -1 -49 20.5t-19 57.5q-2 35 13.5 58t47.5 24l271 10q34 0 59 -22q25 -29 25 -60v-67q0 -231 -11 -330q-20 -163 -94 -240q-78 -75 -215 -75q-141 0 -233 92q-88 91 -125 266q-25 132 -25 316v40z" />
    <glyph glyph-name="H" unicode="H" horiz-adv-x="925"
d="M135 59l1 20q0 20 1 55.5t2.5 82t3 105t2.5 119.5t1.5 131t0.5 133q0 50 -0.5 100t-1 93.5t-1.5 85.5t-2 76.5t-2 65t-2 53.5t-1.5 39.5t-0.5 25.5l-1 9q-1 32 20.5 49t57.5 19q35 2 58 -12.5t24 -46.5l1 -8v-23.5t1.5 -36.5t2.5 -48.5t2 -59t2.5 -70t2 -78.5t1.5 -86
t1 -92l320 12v89v84t0.5 76t0.5 68v58.5t0.5 48t0.5 35.5v23v8q0 31 23 46t59 15q36 -2 57.5 -18t20.5 -48v-9q0 -9 -0.5 -25.5t-0.5 -40v-54.5t-1 -65.5t-0.5 -76.5t0 -86t-0.5 -94.5v-100.5q1 -88 1.5 -186t1 -176t1 -143.5t0.5 -101.5l1 -37q0 -23 -16.5 -42t-57.5 -19
h-4q-37 0 -59 18q-22 20 -23 41v10q0 10 -0.5 28.5t-0.5 43.5t-0.5 57t-1 68t-0.5 78t-0.5 84t-0.5 89.5v92.5l-320 -12l-2 -160.5t-3 -149.5l-3.5 -119.5t-2.5 -84.5l-1 -31q0 -19 -19.5 -36t-60.5 -17q-42 0 -62 18.5t-20 40.5z" />
    <glyph glyph-name="I" unicode="I" horiz-adv-x="448"
d="M143 1262q0 61 80 61q82 0 82 -61v-1196q0 -32 -22 -49t-58 -17t-58 17t-22 49z" />
    <glyph glyph-name="J" unicode="J" horiz-adv-x="765"
d="M90 104q-16 18 -16 37q0 30 39 62q25 23 52.5 24t49.5 -22q1 -1 8.5 -9.5t9.5 -10t9 -8.5t11 -9t11.5 -7t14 -7t15.5 -4.5t19 -3.5t21 -1q41 0 66 20t44 77q37 114 37 456q0 293 -12 461h-301q-31 0 -47.5 23t-16.5 57q0 36 16.5 59t47.5 23h377q31 0 54 -21.5t26 -52.5
l2 -24q2 -24 4.5 -70t5 -107.5t4.5 -154t2 -193.5q0 -363 -45 -505q-68 -207 -264 -207q-51 0 -94 12t-73.5 35t-45 36.5t-31.5 34.5z" />
    <glyph glyph-name="K" unicode="K" horiz-adv-x="892"
d="M135 66l1 12q0 12 0.5 34t1.5 51.5t2 67.5t2 80t2 90.5t1.5 97.5l1 102.5t0.5 103.5t-0.5 100t-1 93.5t-1.5 85t-2 76t-2 64.5t-2 53t-1.5 39.5t-0.5 25.5l-1 9q-1 32 20.5 50t55.5 20h8q31 1 51 -13q24 -16 25 -48q1 -1 3.5 -59t5 -170.5t3.5 -233.5q103 88 166 170
q45 62 81 138t50 118t14 47q9 31 34 42t59 3q35 -10 53.5 -31.5t11.5 -52.5q-5 -21 -18.5 -61.5t-57.5 -132.5t-98 -165q-32 -46 -78 -92q70 -101 133 -241q104 -235 150 -459q3 -12 3 -23q0 -47 -60 -55q-14 -2 -26 -2q-61 0 -73 47q-3 9 -15.5 58l-25 95t-40 122.5
t-60.5 150.5q-55 120 -104 195q-71 -60 -99 -78q0 -43 -0.5 -89t-1 -87l-1 -81.5t-1.5 -75t-2 -65t-1.5 -55t-1 -42t-0.5 -27.5l-1 -9q-1 -12 -3.5 -19.5t-9.5 -18t-24.5 -16t-44.5 -5.5q-80 0 -80 66z" />
    <glyph glyph-name="L" unicode="L" horiz-adv-x="735"
d="M135 1257q-1 32 20 47t58 17h10q69 0 72 -55q1 -1 4 -72t6 -208.5t4 -280.5q0 -89 -8 -541q281 4 320 4q36 0 49.5 -21.5t13.5 -58.5q0 -80 -59 -80q-355 -6 -398 -8q-31 0 -67 25q-23 18 -23 51v8l1 19q0 19 1 52t2 77t2 100l2 114.5t1.5 127t0.5 131.5q0 50 -0.5 100.5
t-1 94t-1.5 85.5t-2 77t-2 65.5t-2 54t-1.5 40.5t-0.5 26z" />
    <glyph glyph-name="M" unicode="M" horiz-adv-x="995"
d="M104 63q0 106 2.5 229t6 235l7 222.5t7.5 201l7 160t5 109.5l2 40q1 27 18.5 43t41.5 18h9q63 0 83 -41q0 -1 6.5 -14.5l17 -36.5l25 -55t32.5 -77l37.5 -95.5l43 -116.5t45.5 -135q21 67 44 132l42.5 115.5l38 95.5t33.5 77.5l26 56t18 37t7 14.5q12 24 31 33.5t55 9.5
q35 -1 49 -16.5t16 -44.5q0 -1 1.5 -41t4.5 -109t6.5 -159t7 -200t6.5 -222t5 -235.5t2 -230.5q0 -32 -22.5 -47.5t-57.5 -15.5q-36 0 -59 15.5t-23 47.5q0 368 -16 822l-25.5 -65l-29 -75l-26.5 -71t-29.5 -87.5t-26.5 -90.5q-10 -34 -28.5 -47t-49.5 -13q-62 0 -80 62
q-16 57 -35 115.5t-33 95.5l-36 93.5t-31 82.5q-19 -542 -21 -822q0 -23 -18 -43t-62 -20t-63 20.5t-17 42.5z" />
    <glyph glyph-name="N" unicode="N" horiz-adv-x="946"
d="M133 59l1 17q0 18 1 47t2 71t2 92t1.5 109t0.5 121.5v130.5q0 137 -2 275.5t-4 226t-2 100.5q0 53 55 68q16 3 29 3q44 0 62 -38q2 -2 44 -84.5l109 -218.5l117 -244q44 -97 94 -219q0 50 -1 149t-1 144q0 71 1 143t2.5 125t3 94.5t2.5 65.5t1 25q1 31 25 46q21 13 51 13
h8q36 -2 57.5 -19.5t18.5 -48.5l-1 -7v-21.5t-1 -32t-1.5 -43.5l-1 -52.5t-1.5 -61.5t-1 -69t-0.5 -76t-0.5 -81q0 -137 2.5 -311.5t5 -296t2.5 -131.5q0 -17 -1.5 -27.5t-7.5 -21.5t-19.5 -16.5t-34.5 -6.5h-8q-39 0 -57 10q-20 10 -32 41q0 1 -29.5 76.5l-60.5 156
l-77.5 192t-84.5 194.5q-50 114 -100 213q2 -72 2 -234q0 -51 -0.5 -103.5t-0.5 -98.5t-1 -91t-1.5 -83t-1 -72t-1.5 -60t-1 -44.5v-28.5l-1 -11q-1 -11 -4 -18.5t-10.5 -16.5t-24.5 -13.5t-43 -4.5t-43.5 5.5t-24.5 15t-9.5 17.5t-2.5 19z" />
    <glyph glyph-name="O" unicode="O"
d="M92 698q0 259 64 414q40 100 110 158q79 67 189 67q210 0 299 -217q63 -147 63 -422q0 -306 -47 -456q-82 -256 -315 -256q-125 0 -205 71q-71 60 -109 174q-49 149 -49 467zM254 698q0 -307 44.5 -430t156.5 -123q52 0 92.5 30t68.5 116q39 124 39 407q0 242 -49 361
t-151 119q-99 0 -150 -127q-51 -119 -51 -353z" />
    <glyph glyph-name="P" unicode="P" horiz-adv-x="808"
d="M133 1237q0 33 23 59q22 25 57 25h63q52 0 98 1h6q44 0 92 -8q51 -8 91 -24q79 -34 123 -102q46 -73 49 -182q0 -17 1 -33q0 -81 -13 -139q-18 -84 -68 -134q-53 -56 -157 -77q-80 -13 -191 -13q0 -57 -1 -118t-2 -113t-2.5 -101t-2.5 -87.5t-2 -67t-1 -44.5l-1 -16
q-2 -35 -18.5 -49t-61.5 -14q-44 0 -63 17.5t-17 52.5l1 12q0 12 0.5 33.5t1 51t1.5 67t2 79t1.5 90l1 97l1 102t0.5 103.5t-0.5 100t-1 92.5t-1.5 83t-2 73.5t-2 62.5t-2 51t-1.5 37t-0.5 23.5zM297 1161q8 -164 8 -391q196 3 236 43q33 35 33 150q0 18 -1 38
q-2 112 -73 140q-44 21 -162 21q-19 0 -41 -1z" />
    <glyph glyph-name="Q" unicode="Q"
d="M92 698q0 259 64 414q40 100 110 158q79 67 189 67q210 0 299 -217q63 -147 63 -422q0 -306 -47 -456q-27 -84 -68 -138q26 -28 78 -73q28 -24 28 -51q0 -29 -32 -62q-29 -27 -57 -27q-24 0 -47 19q-46 39 -97 96q-59 -20 -120 -20q-125 0 -205 71q-71 60 -109 174
q-49 149 -49 467zM254 698q0 -307 44.5 -430t156.5 -123h12q-53 75 -53 84q-13 31 -5.5 48.5t37.5 37.5q26 20 54 20q5 0 9 -1q33 -3 48 -33q12 -24 39 -63l6 15.5l7.5 19.5t6.5 18q39 124 39 407q0 242 -49 361t-151 119q-99 0 -150 -127q-51 -119 -51 -353z" />
    <glyph glyph-name="R" unicode="R" horiz-adv-x="860"
d="M135 70l1 12q0 12 0.5 33t1.5 51.5t2 67t2 79.5t1.5 89.5l1 97t0.5 102v103.5q0 50 -0.5 100t-1 92.5l-1 83t-1.5 73.5t-2 62.5t-1.5 51t-1 37t-0.5 23.5l-1 9v7q0 27 21 52q25 25 59 25h64q52 1 98 1t96 -8t90 -24q79 -34 123 -102q46 -73 49 -182q0 -14 1 -27
q0 -192 -81 -277q-14 -14 -32 -26q22 -22 45 -55q32 -43 51.5 -93.5t27.5 -119t9.5 -115.5t1.5 -137v-88q0 -32 -23 -50t-57 -18q-36 0 -59 17t-23 49v90q0 150 -10 232t-47 138q-37 54 -79 69t-153 15q0 -57 -1 -118t-2 -113l-2 -101.5t-2 -87.5t-1.5 -66.5t-0.5 -44.5
l-1 -16q-1 -30 -25 -45.5t-55 -15.5q-32 0 -57.5 18t-24.5 50zM299 1161q7 -271 8 -389q82 0 111.5 1t64.5 10.5t56 31.5q35 32 35 149q0 18 -1 37q-2 113 -71 140q-45 21 -162 21q-20 0 -41 -1z" />
    <glyph glyph-name="S" unicode="S" horiz-adv-x="802"
d="M66 233q-4 12 -4 23q0 42 59 61q30 11 59 2.5t39 -38.5q22 -70 65 -102.5t119 -33.5h11q75 0 114 39q52 52 52 183v14q-3 84 -34.5 133t-131.5 111q-156 98 -219 170q-80 96 -80 219q2 160 94 243q79 70 192 70q145 0 238 -102q21 -26 16.5 -52t-30.5 -49
q-33 -30 -61 -30q-25 0 -46 24q-43 49 -117 49q-52 0 -84 -28q-41 -41 -41 -125q0 -64 43 -115.5t181 -136.5q128 -83 180 -160q56 -85 59 -217v-23q0 -194 -96 -290q-86 -86 -231 -86q-146 0 -236 71q-76 64 -110 176z" />
    <glyph glyph-name="T" unicode="T" horiz-adv-x="813"
d="M41 1231q0 39 12.5 60.5t52.5 21.5h295q41 0 79.5 1t67.5 2t55 2.5l44 2.5t31 2t20 1l7 1h8q24 0 38 -17q16 -20 19 -57q1 -10 1 -19q0 -65 -52 -69q-1 0 -11 -0.5l-29 -1.5t-45 -2.5t-64.5 -3t-80.5 -2.5q0 -21 -0.5 -100t-0.5 -168t1 -180v-133.5t0.5 -130.5
t0.5 -119.5t0.5 -104.5t1 -81t0.5 -55v-20q0 -21 -18 -41t-62 -20q-42 0 -61 19.5t-19 41.5v12q0 12 -0.5 34t-0.5 52t-0.5 68.5l-1 81t-0.5 91.5t-0.5 98t-0.5 103v104q0 360 2 446h-224q-32 0 -48.5 22t-16.5 58z" />
    <glyph glyph-name="U" unicode="U"
d="M123 1244v11q0 31 22.5 47.5t57.5 16.5h7q28 0 50 -14q24 -16 25 -48v-7v-21t0.5 -33.5t0.5 -47.5v-61t0.5 -76t0.5 -89.5v-104.5v-119q0 -341 45 -460q21 -52 47.5 -72.5t75.5 -20.5q65 0 90 29q46 46 62 179.5t18 346.5v555q0 32 23 48t59 16q35 0 57 -16t22 -48
q0 -177 -2 -557q0 -271 -26 -418t-101 -221q-73 -73 -191 -73h-9q-60 0 -97 11.5t-73 37.5q-68 48 -105 145q-55 147 -55 518q0 77 -0.5 149t-1 126t-1 101.5t-0.5 79.5t-0.5 55t-0.5 35z" />
    <glyph glyph-name="V" unicode="V" horiz-adv-x="845"
d="M63 1251v7q0 54 72 65q9 1 16 1q67 0 72 -54q0 -3 7 -52.5t23 -150t34 -199.5q57 -294 135 -549q29 92 55.5 194.5t46 192.5t36 176.5t28 156t19.5 122.5t12 82.5t4 30.5q4 48 68 48q9 0 20 -1q37 -5 55 -21q16 -13 16 -37v-8q0 -1 -7.5 -55t-23.5 -156.5t-36 -203.5
q-89 -464 -223 -807q-14 -37 -70 -37t-68 37q-134 335 -225 807q-19 101 -35 202.5t-23.5 154.5t-7.5 54z" />
    <glyph glyph-name="W" unicode="W" horiz-adv-x="1085"
d="M113 1262q0 30 21.5 44.5t53.5 14.5q83 0 86 -57q0 -159 17 -557q5 -146 24 -334q43 106 52 133l44.5 141l39 129t14.5 51q13 47 78 47q64 0 78 -49q0 -2 13 -49.5t37 -127t46 -144.5q8 -24 49 -127q24 280 27 328q17 258 17 449q0 52 -1 100v1q0 33 22.5 50.5t57.5 17.5
h7q28 0 50 -14q24 -16 25 -47q0 -309 -17 -568q-25 -350 -65 -635q-8 -52 -68 -59q-9 -1 -17 -1q-53 0 -69 40q-1 3 -21.5 48l-35.5 80.5l-37.5 88t-42 103.5t-33.5 94l-24 69q-1 -4 -23 -67q-14 -41 -35.5 -97.5t-44 -109.5l-41.5 -99l-33 -77.5t-14 -32.5q-19 -39 -67 -39
q-11 0 -23 2q-55 6 -63 55q-55 330 -68 641q-16 379 -16 564z" />
    <glyph glyph-name="X" unicode="X" horiz-adv-x="825"
d="M98 96q104 319 224 621l-101 247.5l-79 188.5t-29 68q-13 30 1 55t46 39q19 8 38 8q12 -1 22 -3q30 -8 40 -36q23 -47 150 -354l75.5 180l57 131t20.5 45q13 30 43 36q9 2 17 2q21 0 41 -11q32 -14 45 -39t0 -55q-4 -8 -30 -66l-79.5 -184l-103.5 -252q153 -389 231 -621
q4 -13 4 -25q0 -19 -9 -33q-15 -26 -48 -34q-20 -6 -37 -6q-48 0 -64 47q-68 204 -163 449q-84 -219 -158 -447q-12 -38 -39 -46q-11 -3 -24 -3q-17 0 -37 6q-34 8 -49 34q-9 16 -9 33q0 12 4 25z" />
    <glyph glyph-name="Y" unicode="Y" horiz-adv-x="800"
d="M53 1239q-2 9 -2 16q0 21 13 35q19 21 55 29q16 3 29 3q52 0 63 -48q0 -3 9.5 -41.5t33 -114t51.5 -145.5q44 -101 96 -191q63 116 93 191q28 70 52.5 146t35 115t10.5 42q8 45 56 45q14 0 32 -4q36 -6 56 -25q14 -15 14 -35q0 -8 -2 -16q0 -5 -11 -47.5t-37 -123.5
t-57 -157q-50 -125 -162 -317v-533q0 -32 -23 -47.5t-59 -15.5q-35 0 -57.5 15.5t-22.5 47.5v537q-111 190 -161 313q-31 76 -57 156.5t-37 122.5t-11 47z" />
    <glyph glyph-name="Z" unicode="Z" horiz-adv-x="811"
d="M74 45q0 2 -1 6q0 15 9 51q179 517 428 1057q-58 -1 -111 -1q-105 0 -188 5q-32 1 -47 24t-12 58q2 35 18 57q16 21 46 21h3q27 -1 58.5 -2t62 -1t61.5 -0.5t60 -0.5h55.5t48 0.5t37.5 1t26 0.5h9h6q40 0 64 -37q13 -21 13 -42q0 -18 -9 -36l-14 -29l-38.5 -81
l-56.5 -122.5l-72 -163l-81.5 -191.5l-88 -219.5l-88.5 -237.5q65 2 125 2h59q86 -2 139 -4.5t60 -3.5q56 -3 56 -72v-10q-3 -37 -19 -58q-15 -20 -44 -20h-3h-4q-182 10 -312 10q-99 0 -167 -6q-33 -3 -46 0t-24 14q-16 18 -18 31z" />
    <glyph glyph-name="bracketleft" unicode="[" horiz-adv-x="409"
d="M0 -252v1899q0 14 2 20q5 30 27.5 50t52.5 20h362q33 0 53.5 -22.5t20.5 -55.5q0 -35 -20.5 -59.5t-53.5 -24.5h-282v-1745h282q33 0 53.5 -23.5t20.5 -56.5q0 -35 -20.5 -58.5t-53.5 -23.5h-354h-10q-33 0 -56.5 23.5t-23.5 56.5z" />
    <glyph glyph-name="backslash" unicode="\" horiz-adv-x="888"
d="M131 1507q-9 31 9.5 53.5t52.5 32.5q16 5 36 2q46 -6 58 -43l489 -1695q9 -31 -8.5 -54.5t-50.5 -33.5q-34 -9 -59.5 1.5t-34.5 41.5z" />
    <glyph glyph-name="bracketright" unicode="]" horiz-adv-x="509"
d="M-104 1659q0 33 20.5 55.5t52.5 22.5h363q30 0 52.5 -20t27.5 -50q2 -6 2 -20v-1899q0 -34 -23 -57t-57 -23h-10h-355q-32 0 -51.5 23.5t-19.5 58.5q0 33 20 56.5t51 23.5h285v1745h-285q-32 0 -52.5 24.5t-20.5 59.5z" />
    <glyph glyph-name="asciicircum" unicode="^" horiz-adv-x="839"
d="M182.5 1161.5q-6.5 29.5 12.5 55.5l153 208q22 31 62 31t59 -31l154 -208q19 -27 12.5 -55.5t-33.5 -49.5q-22 -16 -47 -16q-43 0 -61 26l-84 115l-84 -115q-18 -26 -62 -26q-25 0 -47 16q-28 20 -34.5 49.5z" />
    <glyph glyph-name="underscore" unicode="_" horiz-adv-x="813"
d="M51 -203q0 33 23.5 56.5t56.5 23.5h596q34 0 58 -23t24 -57t-24 -57t-58 -23h-596q-33 0 -56.5 23.5t-23.5 56.5z" />
    <glyph glyph-name="grave" unicode="`" horiz-adv-x="1705"
d="M195 1387.5q7 29.5 36 50.5q26 21 56.5 17.5t48.5 -30.5l153 -208q19 -27 13 -55.5t-33 -49.5q-22 -16 -47 -16q-44 0 -62 26l-153 209q-19 27 -12 56.5z" />
    <glyph glyph-name="a" unicode="a" horiz-adv-x="864"
d="M63 72q0 6 13 69.5t45 201.5l72 298q22 87 49.5 184l51 173.5l43.5 140.5t32 99l12 36q13 40 70 47h9q60 0 75 -51q24 -77 74 -279t87 -375q31 -145 57.5 -281t37 -198t10.5 -65q1 -8 1 -16q0 -22 -13 -38q-18 -21 -52 -24q-7 -1 -14 -1q-25 -1 -49 13q-30 18 -33 47
q-14 93 -86 449l-233 -10l-55.5 -237.5t-35.5 -159t-10 -50.5q-7 -32 -35 -43q-17 -7 -38 -7q-13 0 -27 3q-60 11 -60 58q0 8 2 16zM362 655l160 7q-39 177 -71 303q-47 -148 -89 -310z" />
    <glyph glyph-name="b" unicode="b" horiz-adv-x="876"
d="M135 84q1 2 4 88.5t5.5 239t2.5 293.5q0 50 -1 100t-1.5 92.5t-1.5 83t-2 73.5t-2 62.5t-1.5 51t-1 37t-0.5 23.5l-1 9v7q0 29 23 52q22 25 57 25h64q52 1 98 1t96 -8t90 -24q82 -36 125 -102q44 -69 47 -182q1 -21 0 -40q0 -83 -10 -132q-18 -81 -68 -134q32 -16 54 -38
q94 -91 94 -273q0 -213 -94 -303q-67 -67 -187 -82q-58 -6 -125 -6q-59 0 -90 2h-92q-30 0 -59 25q-23 26 -23 59zM299 160q54 -1 98 -1q22 1 41 1q58 0 98.5 10t61.5 31q47 47 47 188q0 111 -45 156q-64 61 -273 61h-20q0 -254 -8 -446zM299 1161q8 -164 8 -391
q196 3 236 43q32 35 32 165v23q-3 67 -22 97t-51 43q-45 21 -162 21q-20 0 -41 -1z" />
    <glyph glyph-name="c" unicode="c" horiz-adv-x="815"
d="M92 698q0 259 64 414q40 100 110 158q79 67 189 67q90 0 147 -32q52 -28 100 -88q19 -28 11 -53.5t-37 -47.5q-30 -25 -55 -25t-46 25q-27 35 -51 48.5t-69 13.5q-99 0 -150 -127q-51 -119 -51 -353q0 -307 44.5 -430t156.5 -123q101 0 149 80q20 30 50 30q24 0 53 -19
q30 -18 40 -42q4 -9 4 -19q0 -16 -10 -34q-94 -155 -286 -155q-125 0 -205 71q-71 60 -109 174q-49 149 -49 467z" />
    <glyph glyph-name="d" unicode="d" horiz-adv-x="880"
d="M133 1241q0 34 23 57q21 24 90 27q120 0 209 -27q102 -29 178 -102q153 -150 162 -489q2 -49 2 -94q0 -141 -19 -244q-28 -154 -110 -236q-74 -77 -187 -106q-67 -17 -143 -23q-55 -4 -89 -5q-12 0 -22 1q-43 3 -65 25q-23 26 -23 59v4q7 224 7 436q0 85 -1 168l-2 121.5
t-2 114.5t-2.5 101t-2.5 87t-1.5 66t-0.5 44zM297 1161q1 -29 3 -114.5l4 -177t3 -175.5v-109q0 -175 -4 -421q179 9 250 80q49 52 69 160q15 83 14 214q0 40 -1 84q-9 276 -115 379q-74 71 -223 80z" />
    <glyph glyph-name="e" unicode="e" horiz-adv-x="751"
d="M135 84q1 2 4 88.5t5.5 239t2.5 293.5q0 50 -1 99.5t-1.5 92t-1.5 83t-2 74t-2 62.5t-1.5 51t-1 37.5t-0.5 23.5l-1 9v7q0 29 23 52q22 25 57 25q40 0 82 0.5t77 1l68.5 1t59.5 1t45 1t30 0.5l11 1h3q29 -1 43 -21q15 -22 17 -57.5t-12 -58.5t-45 -23l-8 -1
q-8 0 -23 -0.5t-35 -1t-46 -1l-54 -1t-62 -1t-67 -0.5q8 -160 8 -375l209 5q60 0 64 -80q0 -36 -14.5 -59t-45.5 -23l-213 -4q0 -265 -8 -461l322 4h2q31 0 48 -22t17 -56v-7q0 -29 -16 -51q-18 -24 -49 -24q-335 -8 -392 -8q-49 3 -71 25q-25 25 -25 59z" />
    <glyph glyph-name="f" unicode="f" horiz-adv-x="700"
d="M133 1237q0 36 23 59q22 25 57 25q40 0 82 0.5t77 1l68.5 1t59.5 1t45 1t30 0.5l11 1h3q28 0 41 -20q15 -21 17 -58v-9q0 -30 -11 -50q-14 -23 -44 -23l-8 -1q-8 0 -23 -0.5t-35 -1t-46 -1l-54 -1t-62 -1t-67 -0.5q8 -160 8 -375l209 5q32 0 49 -22t17 -58t-15.5 -59
t-46.5 -23l-213 -4q0 -46 -0.5 -94.5t-1 -92l-1 -86.5t-1.5 -80t-2 -70t-1.5 -59t-1 -44.5t-0.5 -28.5l-1 -11q0 -23 -17.5 -41t-64.5 -18q-45 0 -62.5 21t-15.5 45l1 12q0 12 0.5 34t1 51.5t1.5 67.5t2 80t1.5 90.5l1 97.5l1 102.5t0.5 103.5t-0.5 99.5t-1 92t-1.5 83
t-2 74t-2 62.5t-2 51t-1.5 37.5t-0.5 23.5z" />
    <glyph glyph-name="g" unicode="g" horiz-adv-x="888"
d="M94 700q3 239 82 418q50 101 111 154q77 65 176 65q173 0 248 -123q9 -16 9 -31q0 -33 -44 -61q-33 -21 -57 -21q-29 0 -46 29q-15 25 -38 36.5t-72 11.5q-83 0 -139 -127q-65 -136 -68 -353v-41q0 -174 23 -282q25 -131 79 -185q45 -45 119 -45t101 31q27 27 40 98.5
t15 137.5t2 204l-186 -6q-32 -1 -49 20.5t-19 57.5q-2 35 13.5 58t47.5 24l271 10q34 0 59 -22q25 -29 25 -60v-67q0 -231 -11 -330q-20 -163 -94 -240q-78 -75 -215 -75q-141 0 -233 92q-88 91 -125 266q-25 132 -25 316v40z" />
    <glyph glyph-name="h" unicode="h" horiz-adv-x="925"
d="M135 59l1 20q0 20 1 55.5t2.5 82t3 105t2.5 119.5t1.5 131t0.5 133q0 50 -0.5 100t-1 93.5t-1.5 85.5t-2 76.5t-2 65t-2 53.5t-1.5 39.5t-0.5 25.5l-1 9q-1 32 20.5 49t57.5 19q35 2 58 -12.5t24 -46.5l1 -8v-23.5t1.5 -36.5t2.5 -48.5t2 -59t2.5 -70t2 -78.5t1.5 -86
t1 -92l320 12v89v84t0.5 76t0.5 68v58.5t0.5 48t0.5 35.5v23v8q0 31 23 46t59 15q36 -2 57.5 -18t20.5 -48v-9q0 -9 -0.5 -25.5t-0.5 -40v-54.5t-1 -65.5t-0.5 -76.5t0 -86t-0.5 -94.5v-100.5q1 -88 1.5 -186t1 -176t1 -143.5t0.5 -101.5l1 -37q0 -23 -16.5 -42t-57.5 -19
h-4q-37 0 -59 18q-22 20 -23 41v10q0 10 -0.5 28.5t-0.5 43.5t-0.5 57t-1 68t-0.5 78t-0.5 84t-0.5 89.5v92.5l-320 -12l-2 -160.5t-3 -149.5l-3.5 -119.5t-2.5 -84.5l-1 -31q0 -19 -19.5 -36t-60.5 -17q-42 0 -62 18.5t-20 40.5z" />
    <glyph glyph-name="i" unicode="i" horiz-adv-x="448"
d="M143 1262q0 61 80 61q82 0 82 -61v-1196q0 -32 -22 -49t-58 -17t-58 17t-22 49z" />
    <glyph glyph-name="j" unicode="j" horiz-adv-x="765"
d="M90 104q-16 18 -16 37q0 30 39 62q25 23 52.5 24t49.5 -22q1 -1 8.5 -9.5t9.5 -10t9 -8.5t11 -9t11.5 -7t14 -7t15.5 -4.5t19 -3.5t21 -1q41 0 66 20t44 77q37 114 37 456q0 293 -12 461h-301q-31 0 -47.5 23t-16.5 57q0 36 16.5 59t47.5 23h377q31 0 54 -21.5t26 -52.5
l2 -24q2 -24 4.5 -70t5 -107.5t4.5 -154t2 -193.5q0 -363 -45 -505q-68 -207 -264 -207q-51 0 -94 12t-73.5 35t-45 36.5t-31.5 34.5z" />
    <glyph glyph-name="k" unicode="k" horiz-adv-x="892"
d="M135 66l1 12q0 12 0.5 34t1.5 51.5t2 67.5t2 80t2 90.5t1.5 97.5l1 102.5t0.5 103.5t-0.5 100t-1 93.5t-1.5 85t-2 76t-2 64.5t-2 53t-1.5 39.5t-0.5 25.5l-1 9q-1 32 20.5 50t55.5 20h8q31 1 51 -13q24 -16 25 -48q1 -1 3.5 -59t5 -170.5t3.5 -233.5q103 88 166 170
q45 62 81 138t50 118t14 47q9 31 34 42t59 3q35 -10 53.5 -31.5t11.5 -52.5q-5 -21 -18.5 -61.5t-57.5 -132.5t-98 -165q-32 -46 -78 -92q70 -101 133 -241q104 -235 150 -459q3 -12 3 -23q0 -47 -60 -55q-14 -2 -26 -2q-61 0 -73 47q-3 9 -15.5 58l-25 95t-40 122.5
t-60.5 150.5q-55 120 -104 195q-71 -60 -99 -78q0 -43 -0.5 -89t-1 -87l-1 -81.5t-1.5 -75t-2 -65t-1.5 -55t-1 -42t-0.5 -27.5l-1 -9q-1 -12 -3.5 -19.5t-9.5 -18t-24.5 -16t-44.5 -5.5q-80 0 -80 66z" />
    <glyph glyph-name="l" unicode="l" horiz-adv-x="735"
d="M135 1257q-1 32 20 47t58 17h10q69 0 72 -55q1 -1 4 -72t6 -208.5t4 -280.5q0 -89 -8 -541q281 4 320 4q36 0 49.5 -21.5t13.5 -58.5q0 -80 -59 -80q-355 -6 -398 -8q-31 0 -67 25q-23 18 -23 51v8l1 19q0 19 1 52t2 77t2 100l2 114.5t1.5 127t0.5 131.5q0 50 -0.5 100.5
t-1 94t-1.5 85.5t-2 77t-2 65.5t-2 54t-1.5 40.5t-0.5 26z" />
    <glyph glyph-name="m" unicode="m" horiz-adv-x="995"
d="M104 63q0 106 2.5 229t6 235l7 222.5t7.5 201l7 160t5 109.5l2 40q1 27 18.5 43t41.5 18h9q63 0 83 -41q0 -1 6.5 -14.5l17 -36.5l25 -55t32.5 -77l37.5 -95.5l43 -116.5t45.5 -135q21 67 44 132l42.5 115.5l38 95.5t33.5 77.5l26 56t18 37t7 14.5q12 24 31 33.5t55 9.5
q35 -1 49 -16.5t16 -44.5q0 -1 1.5 -41t4.5 -109t6.5 -159t7 -200t6.5 -222t5 -235.5t2 -230.5q0 -32 -22.5 -47.5t-57.5 -15.5q-36 0 -59 15.5t-23 47.5q0 368 -16 822l-25.5 -65l-29 -75l-26.5 -71t-29.5 -87.5t-26.5 -90.5q-10 -34 -28.5 -47t-49.5 -13q-62 0 -80 62
q-16 57 -35 115.5t-33 95.5l-36 93.5t-31 82.5q-19 -542 -21 -822q0 -23 -18 -43t-62 -20t-63 20.5t-17 42.5z" />
    <glyph glyph-name="n" unicode="n" horiz-adv-x="946"
d="M133 59l1 17q0 18 1 47t2 71t2 92t1.5 109t0.5 121.5v130.5q0 137 -2 275.5t-4 226t-2 100.5q0 53 55 68q16 3 29 3q44 0 62 -38q2 -2 44 -84.5l109 -218.5l117 -244q44 -97 94 -219q0 50 -1 149t-1 144q0 71 1 143t2.5 125t3 94.5t2.5 65.5t1 25q1 31 25 46q21 13 51 13
h8q36 -2 57.5 -19.5t18.5 -48.5l-1 -7v-21.5t-1 -32t-1.5 -43.5l-1 -52.5t-1.5 -61.5t-1 -69t-0.5 -76t-0.5 -81q0 -137 2.5 -311.5t5 -296t2.5 -131.5q0 -17 -1.5 -27.5t-7.5 -21.5t-19.5 -16.5t-34.5 -6.5h-8q-39 0 -57 10q-20 10 -32 41q0 1 -29.5 76.5l-60.5 156
l-77.5 192t-84.5 194.5q-50 114 -100 213q2 -72 2 -234q0 -51 -0.5 -103.5t-0.5 -98.5t-1 -91t-1.5 -83t-1 -72t-1.5 -60t-1 -44.5v-28.5l-1 -11q-1 -11 -4 -18.5t-10.5 -16.5t-24.5 -13.5t-43 -4.5t-43.5 5.5t-24.5 15t-9.5 17.5t-2.5 19z" />
    <glyph glyph-name="o" unicode="o"
d="M92 698q0 259 64 414q40 100 110 158q79 67 189 67q210 0 299 -217q63 -147 63 -422q0 -306 -47 -456q-82 -256 -315 -256q-125 0 -205 71q-71 60 -109 174q-49 149 -49 467zM254 698q0 -307 44.5 -430t156.5 -123q52 0 92.5 30t68.5 116q39 124 39 407q0 242 -49 361
t-151 119q-99 0 -150 -127q-51 -119 -51 -353z" />
    <glyph glyph-name="p" unicode="p" horiz-adv-x="808"
d="M133 1237q0 33 23 59q22 25 57 25h63q52 0 98 1h6q44 0 92 -8q51 -8 91 -24q79 -34 123 -102q46 -73 49 -182q1 -17 1 -33q0 -81 -13 -139q-18 -84 -68 -134q-53 -56 -157 -77q-80 -13 -191 -13q0 -57 -1 -118t-2 -113t-2.5 -101t-2.5 -87.5t-2 -67t-1 -44.5l-1 -16
q-2 -35 -18.5 -49t-61.5 -14q-44 0 -63 17.5t-17 52.5l1 12q0 12 0.5 33.5t1 51t1.5 67t2 79t1.5 90l1 97l1 102t0.5 103.5t-0.5 100t-1 92.5t-1.5 83t-2 73.5t-2 62.5t-2 51t-1.5 37t-0.5 23.5zM297 1161q8 -164 8 -391q196 3 236 43q33 35 33 150q0 18 -1 38
q-2 112 -73 140q-44 21 -162 21q-19 0 -41 -1z" />
    <glyph glyph-name="q" unicode="q"
d="M92 698q0 259 64 414q40 100 110 158q79 67 189 67q210 0 299 -217q63 -147 63 -422q0 -306 -47 -456q-27 -84 -68 -138q26 -28 78 -73q28 -24 28 -51q0 -29 -32 -62q-29 -27 -57 -27q-24 0 -47 19q-46 39 -97 96q-59 -20 -120 -20q-125 0 -205 71q-71 60 -109 174
q-49 149 -49 467zM254 698q0 -307 44.5 -430t156.5 -123h12q-53 75 -53 84q-13 31 -5.5 48.5t37.5 37.5q26 20 54 20q5 0 9 -1q33 -3 48 -33q12 -24 39 -63l6 15.5l7.5 19.5t6.5 18q39 124 39 407q0 242 -49 361t-151 119q-99 0 -150 -127q-51 -119 -51 -353z" />
    <glyph glyph-name="r" unicode="r" horiz-adv-x="860"
d="M135 70l1 12q0 12 0.5 33t1.5 51.5t2 67t2 79.5t1.5 89.5l1 97t0.5 102v103.5q0 50 -0.5 100t-1 92.5l-1 83t-1.5 73.5t-2 62.5t-1.5 51t-1 37t-0.5 23.5l-1 9v7q0 27 21 52q25 25 59 25h64q52 1 98 1t96 -8t90 -24q79 -34 123 -102q46 -73 49 -182q0 -14 1 -27
q0 -192 -81 -277q-14 -14 -32 -26q22 -22 45 -55q32 -43 51.5 -93.5t27.5 -119t9.5 -115.5t1.5 -137v-88q0 -32 -23 -50t-57 -18q-36 0 -59 17t-23 49v90q0 150 -10 232t-47 138q-37 54 -79 69t-153 15q0 -57 -1 -118t-2 -113l-2 -101.5t-2 -87.5t-1.5 -66.5t-0.5 -44.5
l-1 -16q-1 -30 -25 -45.5t-55 -15.5q-32 0 -57.5 18t-24.5 50zM299 1161q7 -271 8 -389q82 0 111.5 1t64.5 10.5t56 31.5q35 32 35 149q0 18 -1 37q-2 113 -71 140q-45 21 -162 21q-20 0 -41 -1z" />
    <glyph glyph-name="s" unicode="s" horiz-adv-x="802"
d="M66 233q-4 12 -4 23q0 42 59 61q30 11 59 2.5t39 -38.5q22 -70 65 -102.5t119 -33.5h11q75 0 114 39q52 52 52 183v14q-3 84 -34.5 133t-131.5 111q-156 98 -219 170q-80 96 -80 219q2 160 94 243q79 70 192 70q145 0 238 -102q21 -26 16.5 -52t-30.5 -49
q-33 -30 -61 -30q-25 0 -46 24q-43 49 -117 49q-52 0 -84 -28q-41 -41 -41 -125q0 -64 43 -115.5t181 -136.5q128 -83 180 -160q56 -85 59 -217v-23q0 -194 -96 -290q-86 -86 -231 -86q-146 0 -236 71q-76 64 -110 176z" />
    <glyph glyph-name="t" unicode="t" horiz-adv-x="813"
d="M41 1231q0 39 12.5 60.5t52.5 21.5h295q41 0 79.5 1t67.5 2t55 2.5l44 2.5t31 2t20 1l7 1h8q24 0 38 -17q16 -20 19 -57q1 -10 1 -19q0 -65 -52 -69q-1 0 -11 -0.5l-29 -1.5t-45 -2.5t-64.5 -3t-80.5 -2.5q0 -21 -0.5 -100t-0.5 -168t1 -180v-133.5t0.5 -130.5
t0.5 -119.5t0.5 -104.5t1 -81t0.5 -55v-20q0 -21 -18 -41t-62 -20q-42 0 -61 19.5t-19 41.5v12q0 12 -0.5 34t-0.5 52t-0.5 68.5l-1 81t-0.5 91.5t-0.5 98t-0.5 103v104q0 360 2 446h-224q-32 0 -48.5 22t-16.5 58z" />
    <glyph glyph-name="u" unicode="u"
d="M123 1244v11q0 31 22.5 47.5t57.5 16.5h7q28 0 50 -14q24 -16 25 -48v-7v-21t0.5 -33.5t0.5 -47.5v-61t0.5 -76t0.5 -89.5v-104.5v-119q0 -341 45 -460q21 -52 47.5 -72.5t75.5 -20.5q65 0 90 29q46 46 62 179.5t18 346.5v555q0 32 23 48t59 16q35 0 57 -16t22 -48
q0 -177 -2 -557q0 -271 -26 -418t-101 -221q-73 -73 -191 -73h-9q-60 0 -97 11.5t-73 37.5q-68 48 -105 145q-55 147 -55 518q0 77 -0.5 149t-1 126t-1 101.5t-0.5 79.5t-0.5 55t-0.5 35z" />
    <glyph glyph-name="v" unicode="v" horiz-adv-x="845"
d="M63 1251v7q0 54 72 65q9 1 16 1q67 0 72 -54q0 -3 7 -52.5t23 -150t34 -199.5q57 -294 135 -549q29 92 55.5 194.5t46 192.5t36 176.5t28 156t19.5 122.5t12 82.5t4 30.5q4 48 68 48q9 0 20 -1q37 -5 55 -21q16 -13 16 -37v-8q0 -1 -7.5 -55t-23.5 -156.5t-36 -203.5
q-89 -464 -223 -807q-14 -37 -70 -37t-68 37q-134 335 -225 807q-19 101 -35 202.5t-23.5 154.5t-7.5 54z" />
    <glyph glyph-name="w" unicode="w" horiz-adv-x="1085"
d="M113 1262q0 30 21.5 44.5t53.5 14.5q83 0 86 -57q0 -159 17 -557q5 -146 24 -334q43 106 52 133l44.5 141l39 129t14.5 51q13 47 78 47q64 0 78 -49q0 -2 13 -49.5t37 -127t46 -144.5q8 -24 49 -127q24 280 27 328q17 258 17 449q0 52 -1 100v1q0 33 22.5 50.5t57.5 17.5
h7q28 0 50 -14q24 -16 25 -47q0 -309 -17 -568q-25 -350 -65 -635q-8 -52 -68 -59q-9 -1 -17 -1q-53 0 -69 40q-1 3 -21.5 48l-35.5 80.5l-37.5 88t-42 103.5t-33.5 94l-24 69q-1 -4 -23 -67q-14 -41 -35.5 -97.5t-44 -109.5l-41.5 -99l-33 -77.5t-14 -32.5q-19 -39 -67 -39
q-11 0 -23 2q-55 6 -63 55q-55 330 -68 641q-16 379 -16 564z" />
    <glyph glyph-name="x" unicode="x" horiz-adv-x="825"
d="M98 96q104 319 224 621l-101 247.5l-79 188.5t-29 68q-13 30 1 55t46 39q19 8 38 8q12 -1 22 -3q30 -8 40 -36q23 -47 150 -354l75.5 180l57 131t20.5 45q13 30 43 36q9 2 17 2q21 0 41 -11q32 -14 45 -39t0 -55q-4 -8 -30 -66l-79.5 -184l-103.5 -252q153 -389 231 -621
q4 -13 4 -25q0 -19 -9 -33q-15 -26 -48 -34q-20 -6 -37 -6q-48 0 -64 47q-68 204 -163 449q-84 -219 -158 -447q-12 -38 -39 -46q-11 -3 -24 -3q-17 0 -37 6q-34 8 -49 34q-9 16 -9 33q0 12 4 25z" />
    <glyph glyph-name="y" unicode="y" horiz-adv-x="800"
d="M53 1239q-2 9 -2 16q0 21 13 35q19 21 55 29q16 3 29 3q52 0 63 -48q0 -3 9.5 -41.5t33 -114t51.5 -145.5q44 -101 96 -191q63 116 93 191q28 70 52.5 146t35 115t10.5 42q8 45 56 45q14 0 32 -4q36 -6 56 -25q14 -15 14 -35q0 -8 -2 -16q0 -5 -11 -47.5t-37 -123.5
t-57 -157q-50 -125 -162 -317v-533q0 -32 -23 -47.5t-59 -15.5q-35 0 -57.5 15.5t-22.5 47.5v537q-111 190 -161 313q-31 76 -57 156.5t-37 122.5t-11 47z" />
    <glyph glyph-name="z" unicode="z" horiz-adv-x="811"
d="M74 45q0 2 -1 6q0 15 9 51q179 517 428 1057q-58 -1 -111 -1q-105 0 -188 5q-32 1 -47 24t-12 58q2 35 18 57q16 21 46 21h3q27 -1 58.5 -2t62 -1t61.5 -0.5t60 -0.5h55.5t48 0.5t37.5 1t26 0.5h9h6q40 0 64 -37q13 -21 13 -42q0 -18 -9 -36l-14 -29l-38.5 -81
l-56.5 -122.5l-72 -163l-81.5 -191.5l-88 -219.5l-88.5 -237.5q65 2 125 2h59q86 -2 139 -4.5t60 -3.5q56 -3 56 -72v-10q-3 -37 -19 -58q-15 -20 -44 -20h-3h-4q-182 10 -312 10q-99 0 -167 -6q-33 -3 -46 0t-24 14q-16 18 -18 31z" />
    <glyph glyph-name="braceleft" unicode="{" horiz-adv-x="481"
d="M0 657v2v3q0 34 21 57.5t53 23.5h6q28 -1 37 1.5t12 11.5q6 6 8 86q0 44 -4 184q-6 105 -6 229v37q-4 198 31 291q62 168 262 186q34 3 57.5 -16t26.5 -53q3 -33 -16.5 -60t-51.5 -30q-35 -3 -59.5 -12t-41.5 -28t-26.5 -41t-14.5 -60.5t-6.5 -77t-0.5 -99.5v-35
q0 -15 6 -225q7 -137 3.5 -223t-24.5 -125l-12 -25q4 -6 12 -22q21 -40 24.5 -125.5t-3.5 -222.5q-6 -210 -6 -226v-36q-1 -61 0.5 -99.5t6.5 -76.5t14.5 -60t26.5 -41t41.5 -28t59.5 -13q32 -3 51.5 -28.5t14.5 -59.5q-3 -31 -23.5 -51.5t-50.5 -20.5h-8q-200 18 -262 189
q-35 91 -31 291v34q0 124 6 232q4 136 4 182q-2 77 -8 88q-3 8 -11.5 10.5t-37.5 2.5h-6q-32 0 -53 23t-21 56z" />
    <glyph glyph-name="bar" unicode="|" horiz-adv-x="546"
d="M242 -190v1898q0 33 23 54.5t57 21.5t57.5 -21.5t23.5 -54.5v-1898q0 -33 -23 -54.5t-56 -21.5q-34 0 -58 21.5t-24 54.5z" />
    <glyph glyph-name="braceright" unicode="}" horiz-adv-x="641"
d="M27 1700q3 34 26.5 53t57.5 16q200 -18 262 -186q15 -41 23 -95.5t9 -91.5t1 -104q0 -53 -3.5 -157.5t-3.5 -108.5q-6 -105 -6 -184q1 -18 2 -33.5t2 -24.5t2 -15.5t1 -9.5l1 -3q4 -6 7 -8.5t13 -4t30 -0.5h6q32 0 52.5 -23.5t20.5 -57.5v-3v-2q0 -33 -20.5 -56
t-52.5 -23h-6q-29 0 -37 -2.5t-13 -10.5l-1 -9q-2 -8 -4 -29t-3 -50q0 -80 6 -182q0 -10 3.5 -112t3.5 -154q0 -67 -1 -104t-9 -92t-23 -95q-62 -171 -262 -189h-9q-30 0 -50 20.5t-23 51.5q-3 34 15 59.5t50 28.5q42 4 69.5 18.5t44 35.5t24.5 62t10.5 85t1.5 117v36
q0 16 -6 226q-6 137 -3 222.5t23 125.5q8 16 14 22q-4 6 -14 25q-20 39 -23 125t3 223q6 210 6 225v35q1 73 -1.5 117t-10.5 85t-24.5 62.5t-44 35.5t-69.5 18q-32 3 -51 30t-16 60z" />
    <glyph glyph-name="uni00A0" unicode="&#xa0;" horiz-adv-x="655"
 />
    <glyph glyph-name="sterling" unicode="&#xa3;" horiz-adv-x="876"
d="M61 692q0 36 17 60t49 24l86 2q4 291 41 389q28 78 90 127q67 45 158 45q150 0 235 -141q25 -49 -41 -84q-69 -37 -106 16q-35 52 -88 52q-39 0 -60.5 -16t-35.5 -54q-27 -65 -31 -330l160 2h2q32 0 49.5 -21t17.5 -56q2 -34 -16.5 -58t-50.5 -24l-162 -4v-93
q-2 -109 -2 -317q36 10 84 10q41 -3 63.5 -12.5t50.5 -30.5q33 -26 58 -26q27 2 47 36q27 53 92 27q40 -16 52 -41.5t-3 -46.5l-5.5 -10.5l-9 -17t-13.5 -21t-19 -23.5q-52 -55 -149 -55q-40 1 -68.5 11.5t-41.5 23t-31.5 23t-41.5 10.5q-16 0 -30 -5t-20.5 -9t-22 -17
t-21.5 -17q-40 -34 -90 -10q-43 17 -43 70q0 27 1 187.5t1 260.5v90l-84 -2q-32 0 -49 21t-19 55z" />
    <glyph glyph-name="dieresis" unicode="&#xa8;" horiz-adv-x="829"
d="M106 1184q1 43 34.5 72t76.5 26q44 -1 73 -34.5t27 -76.5q-3 -43 -35.5 -72t-76.5 -28q-43 3 -72.5 36t-26.5 77zM451 1184q1 43 34 72t76 26q43 -1 72 -34.5t26 -76.5q-1 -43 -34 -72.5t-76 -27.5q-43 3 -72 36t-26 77z" />
    <glyph glyph-name="copyright" unicode="&#xa9;" horiz-adv-x="878"
d="M0 1237q0 172 121 293t291 121q172 0 292.5 -121t120.5 -293q0 -112 -55 -206.5t-150 -150t-208 -55.5q-170 0 -291 121t-121 291zM98 1237q0 -129 92.5 -221t221.5 -92q130 0 222.5 92t92.5 221q0 131 -92.5 223t-222.5 92q-129 0 -221.5 -92.5t-92.5 -222.5zM205 1243
q-2 60 27 109.5t81 77.5q56 29 117 26q62 -3 117 -39q17 -12 21 -32t-7 -37q-12 -17 -32 -20.5t-37 7.5q-29 20 -65 22.5t-67 -14.5q-57 -30 -57 -100q0 -80 53 -110q67 -37 160 18q17 9 37.5 4t30.5 -22q9 -19 3.5 -38.5t-22.5 -29.5q-76 -43 -151 -43q-58 0 -107 27
q-47 24 -76 77q-26 54 -26 117z" />
    <glyph glyph-name="guillemotleft" unicode="&#xab;" horiz-adv-x="718"
d="M41 709q0 24 14 41l154 208q20 27 49 30.5t55 -17.5q29 -21 36.5 -50.5t-11.5 -56.5l-115 -155l115 -156q19 -27 12.5 -55t-35.5 -49q-24 -17 -47 -17q-42 0 -61 27l-154 209q-12 18 -12 41zM367 709q0 24 14 41l154 208q20 27 49 30.5t55 -17.5q29 -21 36.5 -50.5
t-11.5 -56.5l-115 -155l115 -156q19 -27 12.5 -55t-35.5 -49q-24 -17 -47 -17q-43 0 -62 27l-153 209q-12 18 -12 41z" />
    <glyph glyph-name="uni00AD" unicode="&#xad;" horiz-adv-x="600"
d="M41 709q0 33 23.5 56t56.5 23h356q34 0 58 -23t24 -56q0 -34 -24 -57t-58 -23h-356q-33 0 -56.5 23.5t-23.5 56.5z" />
    <glyph glyph-name="registered" unicode="&#xae;" horiz-adv-x="878"
d="M0 1237q0 172 121 293t291 121q172 0 292.5 -121t120.5 -293q0 -112 -55 -206.5t-150 -150t-208 -55.5q-170 0 -291 121t-121 291zM98 1237q0 -129 92.5 -221t221.5 -92q130 0 222.5 92t92.5 221q0 131 -92.5 223t-222.5 92q-129 0 -221.5 -92.5t-92.5 -222.5zM270 1063
v352q0 20 14.5 34.5t34.5 14.5h7h4h16q132 5 182 -43q35 -30 35 -82q2 -59 -35 -96q-10 -10 -26 -18l80 -115q12 -17 8 -37.5t-21 -32.5q-11 -8 -28 -8q-27 0 -39 21l-105 147h-4q-16 0 -24 2v-139q0 -21 -14.5 -35t-35.5 -14q-20 0 -34.5 14.5t-14.5 34.5zM369 1300
q69 -6 90 15q1 0 3 2t3 7.5t0 12.5q0 13 -4 13q-14 16 -92 16v-66z" />
    <glyph glyph-name="acute" unicode="&#xb4;" horiz-adv-x="1705"
d="M317.5 1161.5q-6.5 29.5 12.5 55.5l153 208q20 27 50 30.5t57 -17.5q28 -21 35.5 -50.5t-11.5 -56.5l-153 -209q-18 -26 -62 -26q-25 0 -47 16q-28 20 -34.5 49.5z" />
    <glyph glyph-name="cedilla" unicode="&#xb8;" horiz-adv-x="1021"
d="M178 -344q-16 134 94 209q49 29 101 43v155q0 33 22.5 52.5t57.5 19.5t57 -19.5t22 -52.5v-217q0 -28 -16.5 -49.5t-42.5 -27.5q-3 -1 -8 -2.5t-8 -2.5q-76 -19 -99 -38t-20 -52q3 -32 33 -47q44 -17 99.5 -10t84.5 27q28 18 56.5 10.5t47.5 -35.5q20 -27 16.5 -60
t-30.5 -51q-63 -41 -160 -51q-24 -4 -43 -4q-71 0 -139 29q-113 55 -125 174z" />
    <glyph glyph-name="guillemotright" unicode="&#xbb;" horiz-adv-x="720"
d="M44.5 919.5q6.5 28.5 33.5 49.5q22 16 49 16q43 0 59 -27l154 -208q14 -17 14 -41t-14 -41l-154 -209q-20 -27 -49.5 -30.5t-56.5 17.5t-35 50.5t10 56.5l115 156l-113 155q-19 27 -12.5 55.5zM370 919.5q6 28.5 33 49.5q22 16 50 16q43 0 59 -27l154 -208q14 -17 14 -41
t-14 -41l-154 -209q-20 -27 -49.5 -30.5t-56.5 17.5t-35 50.5t10 56.5l115 156l-113 155q-19 27 -13 55.5z" />
    <glyph glyph-name="circumflex" unicode="&#x2c6;" horiz-adv-x="1705"
d="M182.5 1161.5q-6.5 29.5 12.5 55.5l153 208q22 31 62 31t59 -31l154 -208q19 -27 12.5 -55.5t-33.5 -49.5q-22 -16 -47 -16q-43 0 -61 26l-84 115l-84 -115q-18 -26 -62 -26q-25 0 -47 16q-28 20 -34.5 49.5z" />
    <glyph glyph-name="ring" unicode="&#x2da;" horiz-adv-x="1705"
d="M197 1264q0 86 60.5 146t145.5 60q86 0 146.5 -60t60.5 -146q0 -85 -60.5 -145t-146.5 -60q-85 0 -145.5 60t-60.5 145zM330 1264q0 -30 21 -51t52 -21t52.5 21.5t21.5 50.5q0 31 -21.5 52t-52.5 21t-52 -21t-21 -52z" />
    <glyph glyph-name="tilde" unicode="&#x2dc;" horiz-adv-x="1705"
d="M43.5 1186q-2.5 27 17.5 49l11 10q41 47 84 74q70 43 151 31q8 -1 16 -3t16.5 -6t14.5 -6t15 -8t13 -8t13.5 -9.5t12 -9t13 -9.5t11.5 -9l32.5 -26t28 -16t33.5 -9q15 -2 33 10t29 24.5l35 41.5q42 54 98 8q25 -20 31 -44t-11 -50q-2 -3 -16.5 -22.5l-18.5 -25t-18.5 -22
t-23 -22.5l-24.5 -17.5t-31 -16t-35 -8.5t-42 -4h-18q-36 3 -72.5 18.5t-56 29t-47.5 36.5q-39 35 -53 37q-27 4 -50 -10.5t-57 -50.5l-10 -10q-22 -21 -49 -19.5t-49 23.5q-24 22 -26.5 49z" />
    <glyph glyph-name="afii10023" unicode="&#x401;" horiz-adv-x="751"
d="M115 1518q1 43 34 72t76 26q44 -1 73.5 -34.5t27.5 -76.5q-3 -43 -36 -72t-77 -28q-43 3 -72 36t-26 77zM135 84q1 2 4 88.5t5.5 239t2.5 293.5q0 50 -1 99.5t-1.5 92t-1.5 83t-2 74t-2 62.5t-1.5 51t-1 37.5t-0.5 23.5l-1 9q-3 33 23 59q22 25 57 25q40 0 82 0.5t77 1
l68.5 1t59.5 1t45 1t30 0.5l11 1q31 1 46 -20.5t17 -57.5t-12 -59t-45 -23l-8 -1q-8 0 -23 -0.5t-35 -1t-46 -1l-54 -1t-62 -1t-67 -0.5q8 -160 8 -375l209 5q60 0 64 -80q0 -36 -14.5 -59t-45.5 -23l-213 -4q0 -265 -8 -461l322 4h2q31 0 48 -22t17 -56q2 -35 -15.5 -58.5
t-49.5 -23.5q-335 -8 -392 -8q-49 3 -71 25q-25 25 -25 59zM459 1518q1 43 34 72t76 26q43 -1 72.5 -34.5t26.5 -76.5q-1 -42 -34.5 -72t-76.5 -28q-43 3 -72 36t-26 77z" />
    <glyph glyph-name="afii10051" unicode="&#x402;" horiz-adv-x="1058"
d="M41 1231q0 39 12.5 60.5t52.5 21.5h295q41 0 79.5 1t67.5 2t55 2.5l44 2.5t31 2t20 1l7 1q30 3 46 -17t19 -57q8 -83 -51 -88q-1 0 -11 -0.5l-29 -1.5t-45 -2.5t-64.5 -3t-80.5 -2.5q0 -26 -1 -147t-1 -220q161 0 256 -24t150 -80q52 -52 73 -119.5t21 -163.5
q0 -223 -94 -313q-90 -90 -258 -90q-67 0 -70 80q-1 36 15 57.5t45 24.5q68 7 101.5 15t53.5 28q47 47 47 198q0 121 -45 166q-68 65 -293 62v-118.5t-0.5 -115t-0.5 -104.5v-91.5t-0.5 -71t-0.5 -48.5v-17q0 -22 -17.5 -41.5t-61.5 -19.5q-42 0 -61 19.5t-19 41.5v1090
h-222q-32 0 -48.5 22t-16.5 58z" />
    <glyph glyph-name="afii10052" unicode="&#x403;" horiz-adv-x="653"
d="M133 1237q0 36 23 59q22 25 57 25q40 0 80.5 0.5t73.5 1l64 1t54 1t40 1t27 0.5l9 1q30 1 45 -20t17 -58q2 -35 -12 -58.5t-44 -23.5l-7 -1q-7 0 -19.5 -0.5t-29.5 -1t-40.5 -1t-49.5 -1t-58.5 -1t-65.5 -0.5q8 -208 6 -461q0 -75 -8 -641q0 -23 -17.5 -41t-64.5 -18
q-45 0 -62.5 21t-15.5 45l1 12q0 12 0.5 34t1 51.5t1.5 67.5t2 80t1.5 90.5l1 97.5l1 102.5t0.5 103.5t-0.5 99.5t-1 92t-1.5 83t-2 74t-2 62.5t-2 51t-1.5 37.5t-0.5 23.5zM280.5 1468.5q-6.5 29.5 12.5 55.5l153 209q20 27 50 30t57 -18q28 -21 36 -50.5t-11 -56.5
l-154 -208q-19 -27 -62 -27q-25 0 -47 16q-28 20 -34.5 49.5z" />
    <glyph glyph-name="afii10053" unicode="&#x404;" horiz-adv-x="815"
d="M178 698q0 259 64 414q40 100 110 158q79 67 189 67q90 0 147 -32q52 -28 100 -88q19 -28 11 -53.5t-37 -47.5q-59 -49 -100 0q-26 34 -51 48t-70 14q-99 0 -150 -127q-40 -97 -49 -265l231 7q32 0 53 -23t21 -57q0 -35 -18.5 -57.5t-50.5 -22.5l-238 -6
q4 -263 50 -372.5t151 -109.5q101 0 149 80q36 54 103 11q30 -19 40 -42.5t-6 -52.5q-94 -155 -286 -155q-125 0 -205 71q-71 60 -109 174q-49 149 -49 467z" />
    <glyph glyph-name="afii10054" unicode="&#x405;" horiz-adv-x="802"
d="M66 233q-19 60 55 84q30 11 59 2.5t39 -38.5q22 -70 65 -102.5t119 -33.5q83 -3 125 39q55 55 52 197q-3 84 -34.5 133t-131.5 111q-156 98 -219 170q-80 96 -80 219q2 160 94 243q79 70 192 70q145 0 238 -102q21 -26 16.5 -52t-30.5 -49q-63 -56 -107 -6
q-43 49 -117 49q-52 0 -84 -28q-41 -41 -41 -125q0 -64 43 -115.5t181 -136.5q128 -83 180 -160q56 -85 59 -217q6 -211 -96 -313q-86 -86 -231 -86q-146 0 -236 71q-76 64 -110 176z" />
    <glyph glyph-name="afii10055" unicode="&#x406;" horiz-adv-x="448"
d="M143 1262q0 61 80 61q82 0 82 -61v-1196q0 -32 -22 -49t-58 -17t-58 17t-22 49z" />
    <glyph glyph-name="afii10056" unicode="&#x407;" horiz-adv-x="448"
d="M-51 1518q1 43 34 72t76 26q44 -1 73.5 -34.5t27.5 -76.5q-3 -43 -36 -72t-77 -28q-43 3 -72 36t-26 77zM143 1262q0 61 80 61q82 0 82 -61v-1196q0 -32 -22 -49t-58 -17t-58 17t-22 49zM293 1518q1 43 34 72t76 26q43 -1 72.5 -34.5t26.5 -76.5q-1 -42 -34.5 -72
t-76.5 -28q-43 3 -72 36t-26 77z" />
    <glyph glyph-name="afii10057" unicode="&#x408;" horiz-adv-x="765"
d="M90 104q-41 46 23 99q25 23 52.5 24t49.5 -22q1 -1 8.5 -9.5t9.5 -10t9 -8.5t11 -9t11.5 -7t14 -7t15.5 -4.5t19 -3.5t21 -1q41 0 66 20t44 77q37 114 37 456q0 293 -12 461h-301q-31 0 -47.5 23t-16.5 57q0 36 16.5 59t47.5 23h377q31 0 54 -21.5t26 -52.5l2 -24
q2 -24 4.5 -70t5 -107.5t4.5 -154t2 -193.5q0 -363 -45 -505q-68 -207 -264 -207q-51 0 -94 12t-73.5 35t-45 36.5t-31.5 34.5z" />
    <glyph glyph-name="afii10058" unicode="&#x409;" horiz-adv-x="1366"
d="M55 44q-9 24 8 56q7 11 28 40.5t28 41t21.5 40.5t20 53.5t11 64t6.5 86.5q2 106 0 292.5t-5 343t-3 165.5q0 50 23 72t57 22h459q45 0 64.5 -18.5t21.5 -45.5q12 -252 12 -471q160 0 254 -24t149 -80q52 -52 73.5 -120t21.5 -163q0 -222 -95 -313q-92 -92 -311 -88
l-182 2q-31 0 -60 25q-22 25 -22 59q0 17 3 109t6 233.5t3 278.5l-8 456h-305q8 -459 6 -735q0 -58 -5.5 -105.5t-18 -88t-21.5 -66t-30.5 -59t-30.5 -45.5l-35 -46q-19 -25 -54 -27t-57 15q-24 16 -33 40zM799 160q81 -1 139 -0.5t98.5 10.5t61.5 31q47 47 47 198
q0 121 -45 166q-68 65 -293 62q0 -275 -8 -467z" />
    <glyph glyph-name="afii10059" unicode="&#x40a;" horiz-adv-x="1345"
d="M135 59l1 20q0 20 1 55.5t2.5 82t3 105t2.5 119.5t1.5 131t0.5 133q0 50 -0.5 100t-1 93.5t-1.5 85.5t-2 76.5t-2 65t-2 53.5t-1.5 39.5t-0.5 25.5l-1 9q-1 32 20.5 49t57.5 19q35 2 58 -12.5t24 -46.5l1 -8q0 -8 0.5 -23t1.5 -35.5t2 -48t2 -59t2.5 -69.5t2 -77.5
t1.5 -85.5t1 -92l320 12v89v83.5t0.5 75.5t0.5 67.5v57.5t0.5 47.5t0.5 35v22.5v8q0 31 23 46t59 15q36 -2 57.5 -18t20.5 -48v-7q0 -8 -0.5 -22t-0.5 -33v-45t-0.5 -55.5t-0.5 -65.5t-0.5 -74t-0.5 -82.5v-88.5q157 0 252.5 -24.5t149.5 -79.5q52 -52 73 -117t21 -160
q0 -225 -94 -315q-51 -51 -128 -69.5t-183 -18.5h-170q-37 1 -56.5 19.5t-19.5 39.5v10q0 10 -0.5 28.5t-0.5 44t-0.5 58t-1 68.5t-0.5 78.5t-0.5 85t-0.5 90v92.5l-320 -12l-2 -161t-3 -150.5l-3.5 -120.5t-2.5 -86l-1 -31q0 -19 -19.5 -36t-60.5 -17q-42 0 -62 18.5
t-20 40.5zM788 625q1 -65 2 -168.5t1.5 -176.5t1.5 -118q130 -2 192.5 5t91.5 36q47 47 47 200q0 115 -45 160q-34 33 -101.5 47.5t-189.5 14.5z" />
    <glyph glyph-name="afii10060" unicode="&#x40b;" horiz-adv-x="1058"
d="M41 1231q0 39 12.5 60.5t52.5 21.5h295q41 0 79.5 1t67.5 2t55 2.5l44 2.5t31 2t20 1l7 1q30 3 46 -17t19 -57q8 -83 -51 -88q-1 0 -11 -0.5l-29 -1.5t-45 -2.5t-64.5 -3t-80.5 -2.5q0 -26 -1 -150t-1 -217q173 0 261.5 -23t144.5 -81q52 -52 73 -119.5t21 -163.5v-344
q0 -26 -25 -40.5t-55 -14.5q-31 0 -55.5 16t-24.5 41v342q0 72 -10 106.5t-35 59.5q-37 37 -104.5 50.5t-188.5 11.5v-566q0 -24 -17.5 -42.5t-61.5 -18.5q-42 0 -61 19.5t-19 41.5v12v34t-0.5 52t-0.5 68.5v81t-0.5 91.5t-0.5 98v103v104q0 360 2 446h-224q-32 0 -48.5 22
t-16.5 58z" />
    <glyph glyph-name="afii10061" unicode="&#x40c;" horiz-adv-x="892"
d="M135 66l1 12q0 12 0.5 34t1.5 51.5t2 67.5t2 80t2 90.5t1.5 97.5l1 102.5t0.5 103.5t-0.5 100t-1 93.5t-1.5 85t-2 76t-2 64.5t-2 53t-1.5 39.5t-0.5 25.5l-1 9q-1 32 20.5 50t55.5 20q36 2 59.5 -13.5t24.5 -47.5q1 -1 3.5 -59t5 -170.5t3.5 -233.5q103 88 166 170
q45 62 81 138t50 118t14 47q9 31 34 42t59 3q35 -10 53.5 -31.5t11.5 -52.5q-5 -21 -18.5 -61.5t-57.5 -132.5t-98 -165q-32 -46 -78 -92q70 -101 133 -241q104 -235 150 -459q16 -68 -57 -78q-85 -11 -99 45q-3 9 -15.5 58l-25 95t-40 122.5t-60.5 150.5q-55 120 -104 195
q-71 -60 -99 -78q0 -43 -0.5 -89t-1 -87l-1 -81.5t-1.5 -75t-2 -65t-1.5 -55t-1 -42t-0.5 -27.5l-1 -9q-1 -12 -3.5 -19.5t-9.5 -18t-24.5 -16t-44.5 -5.5q-80 0 -80 66zM356.5 1468.5q-6.5 29.5 12.5 55.5l153 209q20 27 50 30t57 -18q28 -21 35.5 -50.5t-11.5 -56.5
l-153 -208q-19 -27 -62 -27q-25 0 -47 16q-28 20 -34.5 49.5z" />
    <glyph glyph-name="afii10062" unicode="&#x40e;" horiz-adv-x="753"
d="M68.5 1664.5q10.5 28.5 40.5 43.5q31 15 61 7.5t45 -36.5q32 -62 69 -89.5t101 -24.5q80 4 116.5 29t71.5 87q17 29 46.5 36t58.5 -9q29 -18 40 -47t-5 -59q-58 -96 -115 -136q-79 -60 -225 -63q-197 0 -301 203q-14 30 -3.5 58.5zM76 1245q-14 59 61 76q83 15 96 -41
q0 -3 10.5 -41.5t34.5 -113t52 -144.5q32 -80 84 -178l79.5 240t54.5 175.5t17 59.5q16 59 94 37q34 -8 51 -28.5t11 -51.5q-2 -10 -22 -78.5t-65.5 -210t-98.5 -287.5l-226 -618q-14 -34 -41.5 -41.5t-60.5 4.5q-71 23 -49 92q7 21 34 95l71 194.5l79 218.5
q-101 165 -162 316q-31 76 -57 156t-36.5 122t-10.5 47z" />
    <glyph glyph-name="afii10145" unicode="&#x40f;"
d="M123 1244v11q0 31 22.5 47.5t57.5 16.5q34 2 57.5 -14t24.5 -48v-7v-21t0.5 -33.5t0.5 -47.5v-61t0.5 -76t0.5 -89.5v-104.5v-119q0 -341 45 -460q21 -52 47.5 -72.5t75.5 -20.5q65 0 90 29q46 46 62 179.5t18 346.5v555q0 32 23 48t59 16q35 0 57 -16t22 -48
q0 -177 -2 -557q0 -271 -26 -418t-101 -221q-50 -50 -116 -65v-144q0 -33 -22.5 -52t-57.5 -19t-57.5 19t-22.5 52v142q-54 11 -94 43q-68 48 -105 145q-55 147 -55 518q0 77 -0.5 149t-1 126t-1 101.5t-0.5 79.5t-0.5 55t-0.5 35z" />
    <glyph glyph-name="afii10017" unicode="&#x410;" horiz-adv-x="864"
d="M63 72q0 6 13 69.5t45 201.5l72 298q22 87 49.5 184l51 173.5l43.5 140.5t32 99l12 36q13 40 70 47q68 4 84 -51q24 -77 74 -279t87 -375q31 -145 57.5 -281t37 -198t10.5 -65q6 -33 -12 -54t-52 -24q-33 -5 -62.5 12.5t-33.5 46.5q-14 93 -86 449l-233 -10l-55.5 -237.5
t-35.5 -159t-10 -50.5q-6 -32 -34.5 -43t-65.5 -4q-69 13 -58 74zM362 655l160 7q-39 177 -71 303q-47 -148 -89 -310z" />
    <glyph glyph-name="afii10018" unicode="&#x411;" horiz-adv-x="876"
d="M135 84q1 2 4 88.5t5.5 239t2.5 293.5q0 50 -1 100t-1.5 92.5t-1.5 83t-2 73.5t-2 62.5t-1.5 51t-1 37t-0.5 23.5l-1 9q-3 33 23 59q22 25 57 25h436q33 0 51.5 -22.5t18.5 -57.5t-18.5 -57.5t-51.5 -22.5h-352q8 -164 8 -375q160 0 254.5 -24t149.5 -80
q52 -52 73 -119.5t21 -163.5q0 -223 -94 -313q-92 -92 -312 -88l-182 2q-30 0 -59 25q-23 26 -23 59zM299 160q81 -1 139 -0.5t98.5 10.5t61.5 31q47 47 47 198q0 121 -45 166q-68 65 -293 62q0 -275 -8 -467z" />
    <glyph glyph-name="afii10019" unicode="&#x412;" horiz-adv-x="876"
d="M135 84q1 2 4 88.5t5.5 239t2.5 293.5q0 50 -1 100t-1.5 92.5t-1.5 83t-2 73.5t-2 62.5t-1.5 51t-1 37t-0.5 23.5l-1 9q-3 33 23 59q22 25 57 25h64q52 1 98 1t96 -8t90 -24q82 -36 125 -102q44 -69 47 -182q3 -111 -10 -172q-18 -81 -68 -134q32 -16 54 -38
q94 -91 94 -273q0 -213 -94 -303q-67 -67 -187 -82q-58 -6 -125 -6q-59 0 -90 2h-92q-30 0 -59 25q-23 26 -23 59zM299 160q81 -1 139 -0.5t98.5 10.5t61.5 31q47 47 47 188q0 111 -45 156q-67 64 -293 61q0 -254 -8 -446zM299 1161q8 -164 8 -391q196 3 236 43
q35 38 32 188q-3 67 -22 97t-51 43q-53 24 -203 20z" />
    <glyph glyph-name="afii10020" unicode="&#x413;" horiz-adv-x="653"
d="M133 1237q0 36 23 59q22 25 57 25q40 0 80.5 0.5t73.5 1l64 1t54 1t40 1t27 0.5l9 1q30 1 45 -20t17 -58q2 -35 -12 -58.5t-44 -23.5l-7 -1q-7 0 -19.5 -0.5t-29.5 -1t-40.5 -1t-49.5 -1t-58.5 -1t-65.5 -0.5q8 -208 6 -461q0 -75 -8 -641q0 -23 -17.5 -41t-64.5 -18
q-45 0 -62.5 21t-15.5 45l1 12q0 12 0.5 34t1 51.5t1.5 67.5t2 80t1.5 90.5l1 97.5l1 102.5t0.5 103.5t-0.5 99.5t-1 92t-1.5 83t-2 74t-2 62.5t-2 51t-1.5 37.5t-0.5 23.5z" />
    <glyph glyph-name="afii10021" unicode="&#x414;" horiz-adv-x="1001"
d="M4 86q3 31 26 52.5t54 21.5h47q40 44 65.5 103t26.5 161q2 106 0 292.5t-5 343t-3 165.5q0 50 23 72t57 22h469q34 0 57 -23t25 -57v-30t-0.5 -76.5t-1 -110t-0.5 -147.5v-173q0 -324 4 -542h29q34 0 57.5 -23t23.5 -57v-232q0 -33 -22 -51t-57 -18t-57.5 18t-22.5 51
v152h-635v-152q0 -33 -22.5 -51t-57.5 -18t-57.5 18t-22.5 51v238zM319 160h367q-6 394 -4 569q0 309 2 430h-305q9 -525 6 -735q-2 -176 -66 -264z" />
    <glyph glyph-name="afii10022" unicode="&#x415;" horiz-adv-x="751"
d="M135 84q1 2 4 88.5t5.5 239t2.5 293.5q0 50 -1 99.5t-1.5 92t-1.5 83t-2 74t-2 62.5t-1.5 51t-1 37.5t-0.5 23.5l-1 9q-3 33 23 59q22 25 57 25q40 0 82 0.5t77 1l68.5 1t59.5 1t45 1t30 0.5l11 1q31 1 46 -20.5t17 -57.5t-12 -59t-45 -23l-8 -1q-8 0 -23 -0.5t-35 -1
t-46 -1l-54 -1t-62 -1t-67 -0.5q8 -160 8 -375l209 5q60 0 64 -80q0 -36 -14.5 -59t-45.5 -23l-213 -4q0 -265 -8 -461l322 4h2q31 0 48 -22t17 -56q2 -35 -15.5 -58.5t-49.5 -23.5q-335 -8 -392 -8q-49 3 -71 25q-25 25 -25 59z" />
    <glyph glyph-name="afii10024" unicode="&#x416;" horiz-adv-x="1363"
d="M86 88q61 244 121 389.5t149 231.5q-19 18 -35.5 35.5t-32 42l-26.5 42t-25.5 51l-22.5 53t-24 65t-23.5 68.5l-26.5 82l-29 89t5.5 53.5t47.5 34.5t61 0.5t39 -41.5q57 -184 98.5 -287.5t81.5 -150.5q25 -30 58.5 -42.5t97.5 -15.5v474q0 61 80 61q82 0 82 -61v-474
q64 3 97.5 15.5t60.5 42.5q40 47 81.5 150.5t98.5 287.5q10 31 39 41.5t61 -0.5t47.5 -34.5t5.5 -53.5l-29 -89l-26.5 -82t-23.5 -68.5t-24 -65l-22.5 -53t-25.5 -51l-26.5 -42t-32 -42t-35.5 -35.5q89 -86 149 -231.5t121 -389.5q10 -30 -5.5 -53.5t-47.5 -34.5t-63 -0.5
t-38 41.5q-39 174 -96 319t-108 209q-25 30 -59.5 42.5t-98.5 13.5v-559q0 -32 -22 -49t-58 -17t-58 17t-22 49l-2 559q-63 -1 -97 -13.5t-59 -42.5q-51 -64 -108 -209t-96 -319q-7 -31 -38 -41.5t-63 0.5t-47.5 34.5t-5.5 53.5z" />
    <glyph glyph-name="afii10025" unicode="&#x417;" horiz-adv-x="856"
d="M84 297q-3 32 17.5 49.5t56.5 20.5q35 3 60 -10.5t26 -45.5q5 -60 51 -113t121 -53q94 0 145 54q66 69 60 231q-6 110 -68 166q-30 24 -69.5 35.5t-65 12.5t-84.5 1q-32 0 -48 22.5t-16 55.5t16.5 57.5t45.5 24.5q52 0 75.5 1.5t60 13.5t62.5 38q58 55 52 168
q-6 72 -43 102q-39 31 -115 31q-68 0 -109.5 -35.5t-48.5 -99.5q-4 -32 -30 -45t-62 -8q-34 3 -53 22t-15 51q15 120 101 197q86 80 219 80q133 -3 211 -66q97 -75 104 -221q6 -96 -22 -172q-25 -77 -84 -127q138 -102 147 -297q3 -116 -20 -198q-27 -92 -84 -152
q-94 -102 -262 -102q-141 0 -236 100q-87 93 -96 211z" />
    <glyph glyph-name="afii10026" unicode="&#x418;" horiz-adv-x="946"
d="M133 72q0 13 2 100.5t4 226t2 275.5v130.5t-0.5 121.5t-1.5 109t-2 92t-2 71t-1 46l-1 18q0 11 2.5 19t9.5 17.5t24.5 15t43.5 5.5t43 -4.5t24.5 -13.5t10.5 -16.5t4 -18.5l1 -10v-29.5t1 -44.5t1.5 -60t1 -72t1.5 -83t1 -91t0.5 -98.5t0.5 -103.5q0 -162 -2 -234
q50 99 100 213q38 83 84.5 194.5l77.5 192l60.5 156t29.5 76.5q12 31 32 41.5t65 9.5q40 -1 51.5 -19t11.5 -53q0 -10 -2.5 -131.5t-5 -296t-2.5 -311.5q0 -40 0.5 -81t0.5 -76t1 -69t1.5 -61.5l1 -52.5t1.5 -43.5t1 -32v-20.5l1 -8q3 -31 -18.5 -48.5t-57.5 -19.5
q-35 -2 -59 13t-25 46q0 1 -1 25t-2.5 65.5t-3 94.5t-2.5 125t-1 143q0 45 1 144t1 149q-50 -122 -94 -219l-117 -244l-109 -218.5t-44 -84.5q-23 -50 -91 -35q-55 15 -55 68z" />
    <glyph glyph-name="afii10027" unicode="&#x419;" horiz-adv-x="946"
d="M133 72q0 13 2 100.5t4 226t2 275.5v130.5t-0.5 121.5t-1.5 109t-2 92t-2 71t-1 46l-1 18q0 11 2.5 19t9.5 17.5t24.5 15t43.5 5.5t43 -4.5t24.5 -13.5t10.5 -16.5t4 -18.5l1 -10v-29.5t1 -44.5t1.5 -60t1 -72t1.5 -83t1 -91t0.5 -98.5t0.5 -103.5q0 -162 -2 -234
q50 99 100 213q38 83 84.5 194.5l77.5 192l60.5 156t29.5 76.5q12 31 32 41.5t65 9.5q40 -1 51.5 -19t11.5 -53q0 -10 -2.5 -131.5t-5 -296t-2.5 -311.5q0 -40 0.5 -81t0.5 -76t1 -69t1.5 -61.5l1 -52.5t1.5 -43.5t1 -32v-20.5l1 -8q3 -31 -18.5 -48.5t-57.5 -19.5
q-35 -2 -59 13t-25 46q0 1 -1 25t-2.5 65.5t-3 94.5t-2.5 125t-1 143q0 45 1 144t1 149q-50 -122 -94 -219l-117 -244l-109 -218.5t-44 -84.5q-23 -50 -91 -35q-55 15 -55 68zM158.5 1664.5q10.5 28.5 40.5 43.5q31 15 61 7.5t45 -36.5q32 -62 69 -89.5t101 -24.5
q80 4 117 29t72 87q17 29 46 36t58 -9q29 -18 40 -47t-5 -59q-58 -96 -115 -136q-79 -60 -225 -63q-197 0 -301 203q-14 30 -3.5 58.5z" />
    <glyph glyph-name="afii10028" unicode="&#x41a;" horiz-adv-x="892"
d="M135 66l1 12q0 12 0.5 34t1.5 51.5t2 67.5t2 80t2 90.5t1.5 97.5l1 102.5t0.5 103.5t-0.5 100t-1 93.5t-1.5 85t-2 76t-2 64.5t-2 53t-1.5 39.5t-0.5 25.5l-1 9q-1 32 20.5 50t55.5 20q36 2 59.5 -13.5t24.5 -47.5q1 -1 3.5 -59t5 -170.5t3.5 -233.5q103 88 166 170
q45 62 81 138t50 118t14 47q9 31 34 42t59 3q35 -10 53.5 -31.5t11.5 -52.5q-5 -21 -18.5 -61.5t-57.5 -132.5t-98 -165q-32 -46 -78 -92q70 -101 133 -241q104 -235 150 -459q16 -68 -57 -78q-85 -11 -99 45q-3 9 -15.5 58l-25 95t-40 122.5t-60.5 150.5q-55 120 -104 195
q-71 -60 -99 -78q0 -43 -0.5 -89t-1 -87l-1 -81.5t-1.5 -75t-2 -65t-1.5 -55t-1 -42t-0.5 -27.5l-1 -9q-1 -12 -3.5 -19.5t-9.5 -18t-24.5 -16t-44.5 -5.5q-80 0 -80 66z" />
    <glyph glyph-name="afii10029" unicode="&#x41b;" horiz-adv-x="944"
d="M55 44q-9 24 8 56q7 11 28 40.5t28 41t21.5 40.5t20 53.5t11 64t6.5 86.5q2 106 0 292.5t-5 343t-3 165.5q0 50 23 72t57 22h469q34 0 57 -23t25 -57q0 -2 -0.5 -30.5t-1 -76t-1 -109.5t-0.5 -147.5t1 -172.5q1 -123 12 -644q0 -23 -16.5 -42t-57.5 -19
q-41 -1 -63.5 18.5t-22.5 40.5q0 2 -2 62t-4 143l-4.5 179.5t-3.5 170.5t0 117q0 309 2 430h-305q8 -459 6 -735q0 -58 -5.5 -105.5t-18 -88t-21.5 -66t-30.5 -59t-30.5 -45.5l-35 -46q-19 -25 -54 -27t-57 15q-24 16 -33 40z" />
    <glyph glyph-name="afii10030" unicode="&#x41c;" horiz-adv-x="995"
d="M104 63q0 106 2.5 229t6 235l7 222.5t7.5 201l7 160t5 109.5l2 40q1 27 18.5 43t41.5 18q71 3 92 -41q0 -1 6.5 -14.5l17 -36.5l25 -55t32.5 -77l37.5 -95.5l43 -116.5t45.5 -135q21 67 44 132l42.5 115.5l38 95.5t33.5 77.5l26 56t18 37t7 14.5q12 24 31 33.5t55 9.5
q35 -1 49 -16.5t16 -44.5q0 -1 1.5 -41t4.5 -109t6.5 -159t7 -200t6.5 -222t5 -235.5t2 -230.5q0 -32 -22.5 -47.5t-57.5 -15.5q-36 0 -59 15.5t-23 47.5q0 368 -16 822l-25.5 -65l-29 -75l-26.5 -71t-29.5 -87.5t-26.5 -90.5q-10 -34 -28.5 -47t-49.5 -13q-62 0 -80 62
q-16 57 -35 115.5t-33 95.5l-36 93.5t-31 82.5q-19 -542 -21 -822q0 -23 -18 -43t-62 -20t-63 20.5t-17 42.5z" />
    <glyph glyph-name="afii10031" unicode="&#x41d;" horiz-adv-x="925"
d="M135 59l1 20q0 20 1 55.5t2.5 82t3 105t2.5 119.5t1.5 131t0.5 133q0 50 -0.5 100t-1 93.5t-1.5 85.5t-2 76.5t-2 65t-2 53.5t-1.5 39.5t-0.5 25.5l-1 9q-1 32 20.5 49t57.5 19q35 2 58 -12.5t24 -46.5l1 -8q0 -8 0.5 -23.5t1.5 -36.5t2 -48.5t2 -59t2.5 -70t2 -78.5
t1.5 -86t1 -92l320 12v89v84t0.5 76t0.5 68v58.5t0.5 48t0.5 35.5v23v8q0 31 23 46t59 15q36 -2 57.5 -18t20.5 -48v-9q0 -9 -0.5 -25.5t-0.5 -40v-54.5t-0.5 -65.5t-0.5 -76.5t-0.5 -86t-0.5 -94.5v-100.5q1 -88 1.5 -186t1 -176t1 -143.5t0.5 -101.5l1 -37
q0 -23 -16.5 -42t-57.5 -19q-41 -1 -63.5 18.5t-22.5 40.5v10q0 10 -0.5 28.5t-0.5 43.5t-0.5 57t-1 68t-0.5 78t-0.5 84t-0.5 89.5v92.5l-320 -12l-2 -160.5t-3 -149.5l-3.5 -119.5t-2.5 -84.5l-1 -31q0 -19 -19.5 -36t-60.5 -17q-42 0 -62 18.5t-20 40.5z" />
    <glyph glyph-name="afii10032" unicode="&#x41e;"
d="M92 698q0 259 64 414q40 100 110 158q79 67 189 67q210 0 299 -217q63 -147 63 -422q0 -306 -47 -456q-82 -256 -315 -256q-125 0 -205 71q-71 60 -109 174q-49 149 -49 467zM254 698q0 -307 44.5 -430t156.5 -123q52 0 92.5 30t68.5 116q39 124 39 407q0 242 -49 361
t-151 119q-99 0 -150 -127q-51 -119 -51 -353z" />
    <glyph glyph-name="afii10033" unicode="&#x41f;" horiz-adv-x="927"
d="M135 70l1 19q0 19 0.5 53.5t1.5 80t2 103l2 117.5t2 129.5t1 132.5q1 113 -10 522q-1 49 22.5 71.5t57.5 22.5h487q34 0 57 -23t25 -57q0 -2 -0.5 -30.5t-1 -76t-1 -109.5t-0.5 -147.5t1 -172.5q0 -36 13 -644q0 -23 -16.5 -42t-57.5 -19q-41 -1 -63.5 18.5t-22.5 40.5
q0 2 -2 62t-4 143l-4.5 179.5t-3.5 170.5t0 117q0 309 2 430h-322q19 -565 -6 -1095v-3q-2 -35 -18.5 -49t-61.5 -14q-44 0 -63 17.5t-17 52.5z" />
    <glyph glyph-name="afii10034" unicode="&#x420;" horiz-adv-x="808"
d="M133 1237q0 33 23 59q22 25 57 25h63q52 0 98.5 0.5t97.5 -7.5t91 -24q79 -34 123 -102q46 -73 49 -182q3 -102 -12 -172q-18 -84 -68 -134q-53 -56 -157 -77q-80 -13 -191 -13q0 -57 -1 -118t-2 -113t-2.5 -101t-2.5 -87.5t-2 -67t-1 -44.5l-1 -16q-2 -35 -18.5 -49
t-61.5 -14q-44 0 -63 17.5t-17 52.5l1 12q0 12 0.5 33.5t1 51t1.5 67t2 79t1.5 90l1 97l1 102t0.5 103.5t-0.5 100t-1 92.5t-1.5 83t-2 73.5t-2 62.5t-2 51t-1.5 37t-0.5 23.5zM297 1161q8 -164 8 -391q196 3 236 43q38 41 32 188q-2 112 -73 140q-51 24 -203 20z" />
    <glyph glyph-name="afii10035" unicode="&#x421;" horiz-adv-x="815"
d="M92 698q0 259 64 414q40 100 110 158q79 67 189 67q90 0 147 -32q52 -28 100 -88q19 -28 11 -53.5t-37 -47.5q-60 -50 -101 0q-27 35 -51 48.5t-69 13.5q-99 0 -150 -127q-51 -119 -51 -353q0 -307 44.5 -430t156.5 -123q101 0 149 80q36 54 103 11q30 -19 40 -42.5
t-6 -52.5q-94 -155 -286 -155q-125 0 -205 71q-71 60 -109 174q-49 149 -49 467z" />
    <glyph glyph-name="afii10036" unicode="&#x422;" horiz-adv-x="813"
d="M41 1231q0 39 12.5 60.5t52.5 21.5h295q41 0 79.5 1t67.5 2t55 2.5l44 2.5t31 2t20 1l7 1q30 3 46 -17t19 -57q8 -83 -51 -88q-1 0 -11 -0.5l-29 -1.5t-45 -2.5t-64.5 -3t-80.5 -2.5q0 -21 -0.5 -100t-0.5 -168t1 -180v-133.5t0.5 -130.5t0.5 -119.5t0.5 -104.5t1 -81
t0.5 -55v-20q0 -21 -18 -41t-62 -20q-42 0 -61 19.5t-19 41.5v12q0 12 -0.5 34t-0.5 52t-0.5 68.5l-1 81t-0.5 91.5t-0.5 98t-0.5 103v104q0 360 2 446h-224q-32 0 -48.5 22t-16.5 58z" />
    <glyph glyph-name="afii10037" unicode="&#x423;" horiz-adv-x="753"
d="M76 1245q-14 59 61 76q83 15 96 -41q0 -3 10.5 -41.5t34.5 -113t52 -144.5q32 -80 84 -178l79.5 240t54.5 175.5t17 59.5q16 59 94 37q34 -8 51 -28.5t11 -51.5q-2 -10 -22 -78.5t-65.5 -210t-98.5 -287.5l-226 -618q-14 -34 -41.5 -41.5t-60.5 4.5q-71 23 -49 92
q7 21 34 95l71 194.5l79 218.5q-101 165 -162 316q-31 76 -57 156t-36.5 122t-10.5 47z" />
    <glyph glyph-name="afii10038" unicode="&#x424;" horiz-adv-x="964"
d="M82 696q0 226 76 363q82 152 243 182v19q0 61 80 61q82 0 82 -61v-17q163 -31 246 -178q74 -136 74 -369q0 -130 -11 -226t-45 -171q-85 -181 -264 -213v-23q0 -63 -80 -63t-80 63v21q-104 16 -165 70t-99 135q-26 53 -39 128t-15.5 131t-2.5 148zM244 696
q0 -215 36 -317.5t123 -128.5l-2 823q-157 -61 -157 -377zM563 250q87 26 122.5 128t35.5 318q0 155 -41 250.5t-117 126.5v-823z" />
    <glyph glyph-name="afii10039" unicode="&#x425;" horiz-adv-x="825"
d="M98 96q104 319 224 621l-101 247.5l-79 188.5t-29 68q-13 30 1 55t46 39q30 13 59.5 5.5t40.5 -36.5q23 -47 150 -354l75.5 180l57 131t20.5 45q13 30 42.5 36.5t58.5 -9.5q32 -14 45 -39t0 -55q-4 -8 -30 -66l-79.5 -184l-103.5 -252q153 -389 231 -621q10 -32 -5 -57.5
t-48 -34.5q-79 -22 -101 41q-68 204 -163 449q-84 -219 -158 -447q-12 -38 -39 -46t-61 3q-34 8 -49 34t-5 58z" />
    <glyph glyph-name="afii10040" unicode="&#x426;" horiz-adv-x="935"
d="M135 94q11 409 10 522q0 63 -1 132.5t-2 129.5l-2 117.5t-2 103t-1.5 80t-0.5 53.5l-1 19q-2 35 17 52.5t63 17.5t61 -14.5t19 -49.5v-3q25 -529 6 -1094h324l-2 1100q0 61 79 61q82 0 82 -61v-1100h27q34 0 58 -23t24 -57v-232q0 -33 -22.5 -51t-57.5 -18t-57.5 18
t-22.5 51v152h-518q-34 0 -57.5 22.5t-22.5 71.5z" />
    <glyph glyph-name="afii10041" unicode="&#x427;" horiz-adv-x="825"
d="M94 1004q4 251 4 256q2 26 24.5 44.5t57.5 18.5q40 0 61 -21t19 -53q0 -67 -4 -260q-6 -137 33 -176q40 -40 235 -43q0 405 4 487q2 26 24.5 45t57.5 19q40 0 61 -21t19 -53q-6 -159 -6 -542v-103.5v-102t0.5 -97t0.5 -90v-79t0.5 -67t0.5 -51v-33.5v-12q2 -35 -17 -52.5
t-63 -17.5q-45 0 -61.5 14t-18.5 49q0 1 -0.5 75l-1.5 211.5t-2 260.5q-110 0 -190 13q-105 21 -158 77q-50 50 -68 134q-15 70 -12 170z" />
    <glyph glyph-name="afii10042" unicode="&#x428;" horiz-adv-x="1232"
d="M135 94q11 409 10 522q0 63 -1 132.5t-2 129.5l-2 117.5t-2 103t-1.5 80t-0.5 53.5l-1 19q-2 35 17 52.5t63 17.5t61 -14.5t19 -49.5v-3q25 -529 6 -1094h244l-2 1102q0 61 80 61q82 0 82 -61v-1102h235l-2 1100q0 61 80 61q82 0 82 -61v-1164q0 -40 -19 -68t-57 -28
h-809q-34 0 -57.5 22.5t-22.5 71.5z" />
    <glyph glyph-name="afii10043" unicode="&#x429;" horiz-adv-x="1267"
d="M135 94q11 409 10 522q0 63 -1 132.5t-2 129.5l-2 117.5t-2 103t-1.5 80t-0.5 53.5l-1 19q-2 35 17 52.5t63 17.5t61 -14.5t19 -49.5v-3q25 -529 6 -1094h244l-2 1102q0 61 80 61q82 0 82 -61v-1102h235l-2 1100q0 61 80 61q82 0 82 -61v-1100h26q34 0 58 -23t24 -57
v-232q0 -33 -22.5 -51t-57.5 -18t-57 18t-22 51v152h-834q-34 0 -57.5 22.5t-22.5 71.5z" />
    <glyph glyph-name="afii10044" unicode="&#x42a;" horiz-adv-x="1034"
d="M41 1239q0 39 12.5 60.5t52.5 21.5q17 0 48 -0.5t84 -0.5t143 1q78 0 82 -64q12 -252 12 -471q160 0 254.5 -24t149.5 -80q52 -52 73 -119.5t21 -163.5q0 -223 -94 -313q-92 -92 -312 -88l-182 2q-30 0 -59 25q-23 26 -23 59q0 17 3 109t6 233.5t3 278.5q-3 295 -10 454
h-199q-32 0 -48.5 22t-16.5 58zM467 160q81 -1 139 -0.5t98.5 10.5t61.5 31q47 47 47 198q0 121 -45 166q-68 65 -293 62q0 -275 -8 -467z" />
    <glyph glyph-name="afii10045" unicode="&#x42b;" horiz-adv-x="1243"
d="M135 84q0 17 3 109t6 233.5t3 278.5q-4 418 -12 536q-2 36 12.5 56.5t61.5 23.5q44 3 64 -17t22 -47q12 -252 12 -471q160 0 254.5 -24t149.5 -80q52 -52 73 -119.5t21 -163.5q0 -223 -94 -313q-92 -92 -312 -88l-182 2q-30 0 -59 25q-23 26 -23 59zM299 160
q81 -1 139 -0.5t98.5 10.5t61.5 31q47 47 47 198q0 121 -45 166q-68 65 -293 62q0 -275 -8 -467zM948 1262q0 61 80 61q82 0 82 -61v-1196q0 -32 -22 -49t-58 -17t-58 17t-22 49z" />
    <glyph glyph-name="afii10046" unicode="&#x42c;" horiz-adv-x="866"
d="M135 84q0 17 3 109t6 233.5t3 278.5q-4 418 -12 536q-2 36 12.5 56.5t61.5 23.5q44 3 64 -17t22 -47q12 -252 12 -471q160 0 254.5 -24t149.5 -80q52 -52 73 -119.5t21 -163.5q0 -223 -94 -313q-92 -92 -312 -88l-182 2q-30 0 -59 25q-23 26 -23 59zM299 160
q81 -1 139 -0.5t98.5 10.5t61.5 31q47 47 47 198q0 121 -45 166q-68 65 -293 62q0 -275 -8 -467z" />
    <glyph glyph-name="afii10047" unicode="&#x42d;" horiz-adv-x="772"
d="M68.5 193.5q10.5 23.5 40.5 42.5q66 42 102 -11q48 -80 149 -80q105 0 151 109.5t50 372.5l-237 6q-32 0 -51 23t-19 57t21 57t53 23l231 -7q-9 168 -49 265q-51 127 -150 127q-45 0 -69 -13.5t-51 -48.5q-41 -50 -101 0q-29 22 -37 47.5t11 53.5q48 60 100 88
q57 32 147 32q110 0 189 -67q70 -58 110 -158q64 -155 64 -414q0 -318 -49 -467q-38 -114 -109 -174q-80 -71 -205 -71q-192 0 -286 155q-16 29 -5.5 52.5z" />
    <glyph glyph-name="afii10048" unicode="&#x42e;" horiz-adv-x="1273"
d="M133 1262q0 61 80 61q82 0 82 -61v-482l162 2q9 202 63 330q39 99 111 158q79 67 188 67q210 0 299 -217q64 -149 64 -422q0 -306 -47 -456q-82 -256 -316 -256q-125 0 -205 71q-70 59 -108 174q-45 136 -49 392l-162 -2v-555q0 -32 -22 -49t-58 -17t-58 17t-22 49z
M618 698q0 -307 44.5 -430t156.5 -123q52 0 93 30t69 116q39 124 39 407q0 242 -49 361t-152 119q-98 0 -149 -127q-52 -122 -52 -353z" />
    <glyph glyph-name="afii10049" unicode="&#x42f;" horiz-adv-x="811"
d="M84 68q1 11 1 26.5t-0.5 34.5t-0.5 27v32q0 66 0.5 99.5t4 88.5t12 89t23 75.5t38.5 74t57 59.5q-66 52 -91 127t-22 205q3 108 50 182q44 68 123 102q40 16 90 24t96 8t98 -1h64q34 0 59 -25q24 -28 21 -59v-9q0 -8 -0.5 -23.5t-1 -37t-1 -51t-0.5 -62.5t-0.5 -73.5
l-1 -83t-0.5 -92.5v-100q-1 -138 3 -635q1 -32 -24.5 -50t-57.5 -18q-31 0 -55 15.5t-25 45.5q0 266 -2 547q-108 0 -153.5 -16.5t-84.5 -67.5q-21 -26 -33 -60t-17 -85t-6 -86.5t-1 -109.5v-29v-90q0 -32 -23 -49t-59 -17q-34 0 -57 18t-23 50zM268 1001q-6 -148 35 -186
q16 -16 34.5 -25.5t56 -13t59.5 -4t88 -0.5q1 85 1 216.5t1 172.5q-150 4 -203 -20q-32 -13 -51.5 -43t-20.5 -97z" />
    <glyph glyph-name="afii10065" unicode="&#x430;" horiz-adv-x="864"
d="M63 72q0 6 13 69.5t45 201.5l72 298q22 87 49.5 184l51 173.5l43.5 140.5t32 99l12 36q13 40 70 47q68 4 84 -51q24 -77 74 -279t87 -375q31 -145 57.5 -281t37 -198t10.5 -65q6 -33 -12 -54t-52 -24q-33 -5 -62.5 12.5t-33.5 46.5q-14 93 -86 449l-233 -10l-55.5 -237.5
t-35.5 -159t-10 -50.5q-6 -32 -34.5 -43t-65.5 -4q-69 13 -58 74zM362 655l160 7q-39 177 -71 303q-47 -148 -89 -310z" />
    <glyph glyph-name="afii10066" unicode="&#x431;" horiz-adv-x="876"
d="M135 84q1 2 4 88.5t5.5 239t2.5 293.5q0 50 -1 100t-1.5 92.5t-1.5 83t-2 73.5t-2 62.5t-1.5 51t-1 37t-0.5 23.5l-1 9q-3 33 23 59q22 25 57 25h436q33 0 51.5 -22.5t18.5 -57.5t-18.5 -57.5t-51.5 -22.5h-352q8 -164 8 -375q160 0 254.5 -24t149.5 -80
q52 -52 73 -119.5t21 -163.5q0 -223 -94 -313q-92 -92 -312 -88l-182 2q-30 0 -59 25q-23 26 -23 59zM299 160q81 -1 139 -0.5t98.5 10.5t61.5 31q47 47 47 198q0 121 -45 166q-68 65 -293 62q0 -275 -8 -467z" />
    <glyph glyph-name="afii10067" unicode="&#x432;" horiz-adv-x="876"
d="M135 84q1 2 4 88.5t5.5 239t2.5 293.5q0 50 -1 100t-1.5 92.5t-1.5 83t-2 73.5t-2 62.5t-1.5 51t-1 37t-0.5 23.5l-1 9q-3 33 23 59q22 25 57 25h64q52 1 98 1t96 -8t90 -24q82 -36 125 -102q44 -69 47 -182q3 -111 -10 -172q-18 -81 -68 -134q32 -16 54 -38
q94 -91 94 -273q0 -213 -94 -303q-67 -67 -187 -82q-58 -6 -125 -6q-59 0 -90 2h-92q-30 0 -59 25q-23 26 -23 59zM299 160q81 -1 139 -0.5t98.5 10.5t61.5 31q47 47 47 188q0 111 -45 156q-67 64 -293 61q0 -254 -8 -446zM299 1161q8 -164 8 -391q196 3 236 43
q35 38 32 188q-3 67 -22 97t-51 43q-53 24 -203 20z" />
    <glyph glyph-name="afii10068" unicode="&#x433;" horiz-adv-x="653"
d="M133 1237q0 36 23 59q22 25 57 25q40 0 80.5 0.5t73.5 1l64 1t54 1t40 1t27 0.5l9 1q30 1 45 -20t17 -58q2 -35 -12 -58.5t-44 -23.5l-7 -1q-7 0 -19.5 -0.5t-29.5 -1t-40.5 -1t-49.5 -1t-58.5 -1t-65.5 -0.5q8 -208 6 -461q0 -75 -8 -641q0 -23 -17.5 -41t-64.5 -18
q-45 0 -62.5 21t-15.5 45l1 12q0 12 0.5 34t1 51.5t1.5 67.5t2 80t1.5 90.5l1 97.5l1 102.5t0.5 103.5t-0.5 99.5t-1 92t-1.5 83t-2 74t-2 62.5t-2 51t-1.5 37.5t-0.5 23.5z" />
    <glyph glyph-name="afii10069" unicode="&#x434;" horiz-adv-x="1001"
d="M4 86q3 31 26 52.5t54 21.5h47q40 44 65.5 103t26.5 161q2 106 0 292.5t-5 343t-3 165.5q0 50 23 72t57 22h469q34 0 57 -23t25 -57v-30t-0.5 -76.5t-1 -110t-0.5 -147.5v-173q0 -324 4 -542h29q34 0 57.5 -23t23.5 -57v-232q0 -33 -22 -51t-57 -18t-57.5 18t-22.5 51
v152h-635v-152q0 -33 -22.5 -51t-57.5 -18t-57.5 18t-22.5 51v238zM319 160h367q-6 394 -4 569q0 309 2 430h-305q9 -525 6 -735q-2 -176 -66 -264z" />
    <glyph glyph-name="afii10070" unicode="&#x435;" horiz-adv-x="751"
d="M135 84q1 2 4 88.5t5.5 239t2.5 293.5q0 50 -1 99.5t-1.5 92t-1.5 83t-2 74t-2 62.5t-1.5 51t-1 37.5t-0.5 23.5l-1 9q-3 33 23 59q22 25 57 25q40 0 82 0.5t77 1l68.5 1t59.5 1t45 1t30 0.5l11 1q31 1 46 -20.5t17 -57.5t-12 -59t-45 -23l-8 -1q-8 0 -23 -0.5t-35 -1
t-46 -1l-54 -1t-62 -1t-67 -0.5q8 -160 8 -375l209 5q60 0 64 -80q0 -36 -14.5 -59t-45.5 -23l-213 -4q0 -265 -8 -461l322 4h2q31 0 48 -22t17 -56q2 -35 -15.5 -58.5t-49.5 -23.5q-335 -8 -392 -8q-49 3 -71 25q-25 25 -25 59z" />
    <glyph glyph-name="afii10072" unicode="&#x436;" horiz-adv-x="1363"
d="M86 88q61 244 121 389.5t149 231.5q-19 18 -35.5 35.5t-32 42l-26.5 42t-25.5 51l-22.5 53t-24 65t-23.5 68.5l-26.5 82l-29 89t5.5 53.5t47.5 34.5t61 0.5t39 -41.5q57 -184 98.5 -287.5t81.5 -150.5q25 -30 58.5 -42.5t97.5 -15.5v474q0 61 80 61q82 0 82 -61v-474
q64 3 97.5 15.5t60.5 42.5q40 47 81.5 150.5t98.5 287.5q10 31 39 41.5t61 -0.5t47.5 -34.5t5.5 -53.5l-29 -89l-26.5 -82t-23.5 -68.5t-24 -65l-22.5 -53t-25.5 -51l-26.5 -42t-32 -42t-35.5 -35.5q89 -86 149 -231.5t121 -389.5q10 -30 -5.5 -53.5t-47.5 -34.5t-63 -0.5
t-38 41.5q-39 174 -96 319t-108 209q-25 30 -59.5 42.5t-98.5 13.5v-559q0 -32 -22 -49t-58 -17t-58 17t-22 49l-2 559q-63 -1 -97 -13.5t-59 -42.5q-51 -64 -108 -209t-96 -319q-7 -31 -38 -41.5t-63 0.5t-47.5 34.5t-5.5 53.5z" />
    <glyph glyph-name="afii10073" unicode="&#x437;" horiz-adv-x="856"
d="M84 297q-3 32 17.5 49.5t56.5 20.5q35 3 60 -10.5t26 -45.5q5 -60 51 -113t121 -53q94 0 145 54q66 69 60 231q-6 110 -68 166q-30 24 -69.5 35.5t-65 12.5t-84.5 1q-32 0 -48 22.5t-16 55.5t16.5 57.5t45.5 24.5q52 0 75.5 1.5t60 13.5t62.5 38q58 55 52 168
q-6 72 -43 102q-39 31 -115 31q-68 0 -109.5 -35.5t-48.5 -99.5q-4 -32 -30 -45t-62 -8q-34 3 -53 22t-15 51q15 120 101 197q86 80 219 80q133 -3 211 -66q97 -75 104 -221q6 -96 -22 -172q-25 -77 -84 -127q138 -102 147 -297q3 -116 -20 -198q-27 -92 -84 -152
q-94 -102 -262 -102q-141 0 -236 100q-87 93 -96 211z" />
    <glyph glyph-name="afii10074" unicode="&#x438;" horiz-adv-x="946"
d="M133 72q0 13 2 100.5t4 226t2 275.5v130.5t-0.5 121.5t-1.5 109t-2 92t-2 71t-1 46l-1 18q0 11 2.5 19t9.5 17.5t24.5 15t43.5 5.5t43 -4.5t24.5 -13.5t10.5 -16.5t4 -18.5l1 -10v-29.5t1 -44.5t1.5 -60t1 -72t1.5 -83t1 -91t0.5 -98.5t0.5 -103.5q0 -162 -2 -234
q50 99 100 213q38 83 84.5 194.5l77.5 192l60.5 156t29.5 76.5q12 31 32 41.5t65 9.5q40 -1 51.5 -19t11.5 -53q0 -10 -2.5 -131.5t-5 -296t-2.5 -311.5q0 -40 0.5 -81t0.5 -76t1 -69t1.5 -61.5l1 -52.5t1.5 -43.5t1 -32v-20.5l1 -8q3 -31 -18.5 -48.5t-57.5 -19.5
q-35 -2 -59 13t-25 46q0 1 -1 25t-2.5 65.5t-3 94.5t-2.5 125t-1 143q0 45 1 144t1 149q-50 -122 -94 -219l-117 -244l-109 -218.5t-44 -84.5q-23 -50 -91 -35q-55 15 -55 68z" />
    <glyph glyph-name="afii10075" unicode="&#x439;" horiz-adv-x="946"
d="M133 72q0 13 2 100.5t4 226t2 275.5v130.5t-0.5 121.5t-1.5 109t-2 92t-2 71t-1 46l-1 18q0 11 2.5 19t9.5 17.5t24.5 15t43.5 5.5t43 -4.5t24.5 -13.5t10.5 -16.5t4 -18.5l1 -10v-29.5t1 -44.5t1.5 -60t1 -72t1.5 -83t1 -91t0.5 -98.5t0.5 -103.5q0 -162 -2 -234
q50 99 100 213q38 83 84.5 194.5l77.5 192l60.5 156t29.5 76.5q12 31 32 41.5t65 9.5q40 -1 51.5 -19t11.5 -53q0 -10 -2.5 -131.5t-5 -296t-2.5 -311.5q0 -40 0.5 -81t0.5 -76t1 -69t1.5 -61.5l1 -52.5t1.5 -43.5t1 -32v-20.5l1 -8q3 -31 -18.5 -48.5t-57.5 -19.5
q-35 -2 -59 13t-25 46q0 1 -1 25t-2.5 65.5t-3 94.5t-2.5 125t-1 143q0 45 1 144t1 149q-50 -122 -94 -219l-117 -244l-109 -218.5t-44 -84.5q-23 -50 -91 -35q-55 15 -55 68zM158.5 1664.5q10.5 28.5 40.5 43.5q31 15 61 7.5t45 -36.5q32 -62 69 -89.5t101 -24.5
q80 4 117 29t72 87q17 29 46 36t58 -9q29 -18 40 -47t-5 -59q-58 -96 -115 -136q-79 -60 -225 -63q-197 0 -301 203q-14 30 -3.5 58.5z" />
    <glyph glyph-name="afii10076" unicode="&#x43a;" horiz-adv-x="892"
d="M135 66l1 12q0 12 0.5 34t1.5 51.5t2 67.5t2 80t2 90.5t1.5 97.5l1 102.5t0.5 103.5t-0.5 100t-1 93.5t-1.5 85t-2 76t-2 64.5t-2 53t-1.5 39.5t-0.5 25.5l-1 9q-1 32 20.5 50t55.5 20q36 2 59.5 -13.5t24.5 -47.5q1 -1 3.5 -59t5 -170.5t3.5 -233.5q103 88 166 170
q45 62 81 138t50 118t14 47q9 31 34 42t59 3q35 -10 53.5 -31.5t11.5 -52.5q-5 -21 -18.5 -61.5t-57.5 -132.5t-98 -165q-32 -46 -78 -92q70 -101 133 -241q104 -235 150 -459q16 -68 -57 -78q-85 -11 -99 45q-3 9 -15.5 58l-25 95t-40 122.5t-60.5 150.5q-55 120 -104 195
q-71 -60 -99 -78q0 -43 -0.5 -89t-1 -87l-1 -81.5t-1.5 -75t-2 -65t-1.5 -55t-1 -42t-0.5 -27.5l-1 -9q-1 -12 -3.5 -19.5t-9.5 -18t-24.5 -16t-44.5 -5.5q-80 0 -80 66z" />
    <glyph glyph-name="afii10077" unicode="&#x43b;" horiz-adv-x="944"
d="M55 44q-9 24 8 56q7 11 28 40.5t28 41t21.5 40.5t20 53.5t11 64t6.5 86.5q2 106 0 292.5t-5 343t-3 165.5q0 50 23 72t57 22h469q34 0 57 -23t25 -57q0 -2 -0.5 -30.5t-1 -76t-1 -109.5t-0.5 -147.5t1 -172.5q1 -123 12 -644q0 -23 -16.5 -42t-57.5 -19
q-41 -1 -63.5 18.5t-22.5 40.5q0 2 -2 62t-4 143l-4.5 179.5t-3.5 170.5t0 117q0 309 2 430h-305q8 -459 6 -735q0 -58 -5.5 -105.5t-18 -88t-21.5 -66t-30.5 -59t-30.5 -45.5l-35 -46q-19 -25 -54 -27t-57 15q-24 16 -33 40z" />
    <glyph glyph-name="afii10078" unicode="&#x43c;" horiz-adv-x="995"
d="M104 63q0 106 2.5 229t6 235l7 222.5t7.5 201l7 160t5 109.5l2 40q1 27 18.5 43t41.5 18q71 3 92 -41q0 -1 6.5 -14.5l17 -36.5l25 -55t32.5 -77l37.5 -95.5l43 -116.5t45.5 -135q21 67 44 132l42.5 115.5l38 95.5t33.5 77.5l26 56t18 37t7 14.5q12 24 31 33.5t55 9.5
q35 -1 49 -16.5t16 -44.5q0 -1 1.5 -41t4.5 -109t6.5 -159t7 -200t6.5 -222t5 -235.5t2 -230.5q0 -32 -22.5 -47.5t-57.5 -15.5q-36 0 -59 15.5t-23 47.5q0 368 -16 822l-25.5 -65l-29 -75l-26.5 -71t-29.5 -87.5t-26.5 -90.5q-10 -34 -28.5 -47t-49.5 -13q-62 0 -80 62
q-16 57 -35 115.5t-33 95.5l-36 93.5t-31 82.5q-19 -542 -21 -822q0 -23 -18 -43t-62 -20t-63 20.5t-17 42.5z" />
    <glyph glyph-name="afii10079" unicode="&#x43d;" horiz-adv-x="925"
d="M135 59l1 20q0 20 1 55.5t2.5 82t3 105t2.5 119.5t1.5 131t0.5 133q0 50 -0.5 100t-1 93.5t-1.5 85.5t-2 76.5t-2 65t-2 53.5t-1.5 39.5t-0.5 25.5l-1 9q-1 32 20.5 49t57.5 19q35 2 58 -12.5t24 -46.5l1 -8q0 -8 0.5 -23.5t1.5 -36.5t2 -48.5t2 -59t2.5 -70t2 -78.5
t1.5 -86t1 -92l320 12v89v84t0.5 76t0.5 68v58.5t0.5 48t0.5 35.5v23v8q0 31 23 46t59 15q36 -2 57.5 -18t20.5 -48v-9q0 -9 -0.5 -25.5t-0.5 -40v-54.5t-0.5 -65.5t-0.5 -76.5t-0.5 -86t-0.5 -94.5v-100.5q1 -88 1.5 -186t1 -176t1 -143.5t0.5 -101.5l1 -37
q0 -23 -16.5 -42t-57.5 -19q-41 -1 -63.5 18.5t-22.5 40.5v10q0 10 -0.5 28.5t-0.5 43.5t-0.5 57t-1 68t-0.5 78t-0.5 84t-0.5 89.5v92.5l-320 -12l-2 -160.5t-3 -149.5l-3.5 -119.5t-2.5 -84.5l-1 -31q0 -19 -19.5 -36t-60.5 -17q-42 0 -62 18.5t-20 40.5z" />
    <glyph glyph-name="afii10080" unicode="&#x43e;"
d="M92 698q0 259 64 414q40 100 110 158q79 67 189 67q210 0 299 -217q63 -147 63 -422q0 -306 -47 -456q-82 -256 -315 -256q-125 0 -205 71q-71 60 -109 174q-49 149 -49 467zM254 698q0 -307 44.5 -430t156.5 -123q52 0 92.5 30t68.5 116q39 124 39 407q0 242 -49 361
t-151 119q-99 0 -150 -127q-51 -119 -51 -353z" />
    <glyph glyph-name="afii10081" unicode="&#x43f;" horiz-adv-x="927"
d="M135 70l1 19q0 19 0.5 53.5t1.5 80t2 103l2 117.5t2 129.5t1 132.5q1 113 -10 522q-1 49 22.5 71.5t57.5 22.5h487q34 0 57 -23t25 -57q0 -2 -0.5 -30.5t-1 -76t-1 -109.5t-0.5 -147.5t1 -172.5q0 -36 13 -644q0 -23 -16.5 -42t-57.5 -19q-41 -1 -63.5 18.5t-22.5 40.5
q0 2 -2 62t-4 143l-4.5 179.5t-3.5 170.5t0 117q0 309 2 430h-322q19 -565 -6 -1095v-3q-2 -35 -18.5 -49t-61.5 -14q-44 0 -63 17.5t-17 52.5z" />
    <glyph glyph-name="afii10082" unicode="&#x440;" horiz-adv-x="808"
d="M133 1237q0 33 23 59q22 25 57 25h63q52 0 98.5 0.5t97.5 -7.5t91 -24q79 -34 123 -102q46 -73 49 -182q3 -102 -12 -172q-18 -84 -68 -134q-53 -56 -157 -77q-80 -13 -191 -13q0 -57 -1 -118t-2 -113t-2.5 -101t-2.5 -87.5t-2 -67t-1 -44.5l-1 -16q-2 -35 -18.5 -49
t-61.5 -14q-44 0 -63 17.5t-17 52.5l1 12q0 12 0.5 33.5t1 51t1.5 67t2 79t1.5 90l1 97l1 102t0.5 103.5t-0.5 100t-1 92.5t-1.5 83t-2 73.5t-2 62.5t-2 51t-1.5 37t-0.5 23.5zM297 1161q8 -164 8 -391q196 3 236 43q38 41 32 188q-2 112 -73 140q-51 24 -203 20z" />
    <glyph glyph-name="afii10083" unicode="&#x441;" horiz-adv-x="815"
d="M92 698q0 259 64 414q40 100 110 158q79 67 189 67q90 0 147 -32q52 -28 100 -88q19 -28 11 -53.5t-37 -47.5q-60 -50 -101 0q-27 35 -51 48.5t-69 13.5q-99 0 -150 -127q-51 -119 -51 -353q0 -307 44.5 -430t156.5 -123q101 0 149 80q36 54 103 11q30 -19 40 -42.5
t-6 -52.5q-94 -155 -286 -155q-125 0 -205 71q-71 60 -109 174q-49 149 -49 467z" />
    <glyph glyph-name="afii10084" unicode="&#x442;" horiz-adv-x="813"
d="M41 1231q0 39 12.5 60.5t52.5 21.5h295q41 0 79.5 1t67.5 2t55 2.5l44 2.5t31 2t20 1l7 1q30 3 46 -17t19 -57q8 -83 -51 -88q-1 0 -11 -0.5l-29 -1.5t-45 -2.5t-64.5 -3t-80.5 -2.5q0 -21 -0.5 -100t-0.5 -168t1 -180v-133.5t0.5 -130.5t0.5 -119.5t0.5 -104.5t1 -81
t0.5 -55v-20q0 -21 -18 -41t-62 -20q-42 0 -61 19.5t-19 41.5v12q0 12 -0.5 34t-0.5 52t-0.5 68.5l-1 81t-0.5 91.5t-0.5 98t-0.5 103v104q0 360 2 446h-224q-32 0 -48.5 22t-16.5 58z" />
    <glyph glyph-name="afii10085" unicode="&#x443;" horiz-adv-x="753"
d="M76 1245q-14 59 61 76q83 15 96 -41q0 -3 10.5 -41.5t34.5 -113t52 -144.5q32 -80 84 -178l79.5 240t54.5 175.5t17 59.5q16 59 94 37q34 -8 51 -28.5t11 -51.5q-2 -10 -22 -78.5t-65.5 -210t-98.5 -287.5l-226 -618q-14 -34 -41.5 -41.5t-60.5 4.5q-71 23 -49 92
q7 21 34 95l71 194.5l79 218.5q-101 165 -162 316q-31 76 -57 156t-36.5 122t-10.5 47z" />
    <glyph glyph-name="afii10086" unicode="&#x444;" horiz-adv-x="964"
d="M82 696q0 226 76 363q82 152 243 182v19q0 61 80 61q82 0 82 -61v-17q163 -31 246 -178q74 -136 74 -369q0 -130 -11 -226t-45 -171q-85 -181 -264 -213v-23q0 -63 -80 -63t-80 63v21q-104 16 -165 70t-99 135q-26 53 -39 128t-15.5 131t-2.5 148zM244 696
q0 -215 36 -317.5t123 -128.5l-2 823q-157 -61 -157 -377zM563 250q87 26 122.5 128t35.5 318q0 155 -41 250.5t-117 126.5v-823z" />
    <glyph glyph-name="afii10087" unicode="&#x445;" horiz-adv-x="825"
d="M98 96q104 319 224 621l-101 247.5l-79 188.5t-29 68q-13 30 1 55t46 39q30 13 59.5 5.5t40.5 -36.5q23 -47 150 -354l75.5 180l57 131t20.5 45q13 30 42.5 36.5t58.5 -9.5q32 -14 45 -39t0 -55q-4 -8 -30 -66l-79.5 -184l-103.5 -252q153 -389 231 -621q10 -32 -5 -57.5
t-48 -34.5q-79 -22 -101 41q-68 204 -163 449q-84 -219 -158 -447q-12 -38 -39 -46t-61 3q-34 8 -49 34t-5 58z" />
    <glyph glyph-name="afii10088" unicode="&#x446;" horiz-adv-x="935"
d="M135 94q11 409 10 522q0 63 -1 132.5t-2 129.5l-2 117.5t-2 103t-1.5 80t-0.5 53.5l-1 19q-2 35 17 52.5t63 17.5t61 -14.5t19 -49.5v-3q25 -529 6 -1094h324l-2 1100q0 61 79 61q82 0 82 -61v-1100h27q34 0 58 -23t24 -57v-232q0 -33 -22.5 -51t-57.5 -18t-57.5 18
t-22.5 51v152h-518q-34 0 -57.5 22.5t-22.5 71.5z" />
    <glyph glyph-name="afii10089" unicode="&#x447;" horiz-adv-x="825"
d="M94 1004q4 251 4 256q2 26 24.5 44.5t57.5 18.5q40 0 61 -21t19 -53q0 -67 -4 -260q-6 -137 33 -176q40 -40 235 -43q0 405 4 487q2 26 24.5 45t57.5 19q40 0 61 -21t19 -53q-6 -159 -6 -542v-103.5v-102t0.5 -97t0.5 -90v-79t0.5 -67t0.5 -51v-33.5v-12q2 -35 -17 -52.5
t-63 -17.5q-45 0 -61.5 14t-18.5 49q0 1 -0.5 75l-1.5 211.5t-2 260.5q-110 0 -190 13q-105 21 -158 77q-50 50 -68 134q-15 70 -12 170z" />
    <glyph glyph-name="afii10090" unicode="&#x448;" horiz-adv-x="1232"
d="M135 94q11 409 10 522q0 63 -1 132.5t-2 129.5l-2 117.5t-2 103t-1.5 80t-0.5 53.5l-1 19q-2 35 17 52.5t63 17.5t61 -14.5t19 -49.5v-3q25 -529 6 -1094h244l-2 1102q0 61 80 61q82 0 82 -61v-1102h235l-2 1100q0 61 80 61q82 0 82 -61v-1164q0 -40 -19 -68t-57 -28
h-809q-34 0 -57.5 22.5t-22.5 71.5z" />
    <glyph glyph-name="afii10091" unicode="&#x449;" horiz-adv-x="1267"
d="M135 94q11 409 10 522q0 63 -1 132.5t-2 129.5l-2 117.5t-2 103t-1.5 80t-0.5 53.5l-1 19q-2 35 17 52.5t63 17.5t61 -14.5t19 -49.5v-3q25 -529 6 -1094h244l-2 1102q0 61 80 61q82 0 82 -61v-1102h235l-2 1100q0 61 80 61q82 0 82 -61v-1100h26q34 0 58 -23t24 -57
v-232q0 -33 -22.5 -51t-57.5 -18t-57 18t-22 51v152h-834q-34 0 -57.5 22.5t-22.5 71.5z" />
    <glyph glyph-name="afii10092" unicode="&#x44a;" horiz-adv-x="1034"
d="M41 1239q0 39 12.5 60.5t52.5 21.5q17 0 48 -0.5t84 -0.5t143 1q78 0 82 -64q12 -252 12 -471q160 0 254.5 -24t149.5 -80q52 -52 73 -119.5t21 -163.5q0 -223 -94 -313q-92 -92 -312 -88l-182 2q-30 0 -59 25q-23 26 -23 59q0 17 3 109t6 233.5t3 278.5q-3 295 -10 454
h-199q-32 0 -48.5 22t-16.5 58zM467 160q81 -1 139 -0.5t98.5 10.5t61.5 31q47 47 47 198q0 121 -45 166q-68 65 -293 62q0 -275 -8 -467z" />
    <glyph glyph-name="afii10093" unicode="&#x44b;" horiz-adv-x="1243"
d="M135 84q0 17 3 109t6 233.5t3 278.5q-4 418 -12 536q-2 36 12.5 56.5t61.5 23.5q44 3 64 -17t22 -47q12 -252 12 -471q160 0 254.5 -24t149.5 -80q52 -52 73 -119.5t21 -163.5q0 -223 -94 -313q-92 -92 -312 -88l-182 2q-30 0 -59 25q-23 26 -23 59zM299 160
q81 -1 139 -0.5t98.5 10.5t61.5 31q47 47 47 198q0 121 -45 166q-68 65 -293 62q0 -275 -8 -467zM948 1262q0 61 80 61q82 0 82 -61v-1196q0 -32 -22 -49t-58 -17t-58 17t-22 49z" />
    <glyph glyph-name="afii10094" unicode="&#x44c;" horiz-adv-x="866"
d="M135 84q0 17 3 109t6 233.5t3 278.5q-4 418 -12 536q-2 36 12.5 56.5t61.5 23.5q44 3 64 -17t22 -47q12 -252 12 -471q160 0 254.5 -24t149.5 -80q52 -52 73 -119.5t21 -163.5q0 -223 -94 -313q-92 -92 -312 -88l-182 2q-30 0 -59 25q-23 26 -23 59zM299 160
q81 -1 139 -0.5t98.5 10.5t61.5 31q47 47 47 198q0 121 -45 166q-68 65 -293 62q0 -275 -8 -467z" />
    <glyph glyph-name="afii10095" unicode="&#x44d;" horiz-adv-x="772"
d="M68.5 193.5q10.5 23.5 40.5 42.5q66 42 102 -11q48 -80 149 -80q105 0 151 109.5t50 372.5l-237 6q-32 0 -51 23t-19 57t21 57t53 23l231 -7q-9 168 -49 265q-51 127 -150 127q-45 0 -69 -13.5t-51 -48.5q-41 -50 -101 0q-29 22 -37 47.5t11 53.5q48 60 100 88
q57 32 147 32q110 0 189 -67q70 -58 110 -158q64 -155 64 -414q0 -318 -49 -467q-38 -114 -109 -174q-80 -71 -205 -71q-192 0 -286 155q-16 29 -5.5 52.5z" />
    <glyph glyph-name="afii10096" unicode="&#x44e;" horiz-adv-x="1273"
d="M133 1262q0 61 80 61q82 0 82 -61v-482l162 2q9 202 63 330q39 99 111 158q79 67 188 67q210 0 299 -217q64 -149 64 -422q0 -306 -47 -456q-82 -256 -316 -256q-125 0 -205 71q-70 59 -108 174q-45 136 -49 392l-162 -2v-555q0 -32 -22 -49t-58 -17t-58 17t-22 49z
M618 698q0 -307 44.5 -430t156.5 -123q52 0 93 30t69 116q39 124 39 407q0 242 -49 361t-152 119q-98 0 -149 -127q-52 -122 -52 -353z" />
    <glyph glyph-name="afii10097" unicode="&#x44f;" horiz-adv-x="811"
d="M84 68q1 11 1 26.5t-0.5 34.5t-0.5 27v32q0 66 0.5 99.5t4 88.5t12 89t23 75.5t38.5 74t57 59.5q-66 52 -91 127t-22 205q3 108 50 182q44 68 123 102q40 16 90 24t96 8t98 -1h64q34 0 59 -25q24 -28 21 -59v-9q0 -8 -0.5 -23.5t-1 -37t-1 -51t-0.5 -62.5t-0.5 -73.5
l-1 -83t-0.5 -92.5v-100q-1 -138 3 -635q1 -32 -24.5 -50t-57.5 -18q-31 0 -55 15.5t-25 45.5q0 266 -2 547q-108 0 -153.5 -16.5t-84.5 -67.5q-21 -26 -33 -60t-17 -85t-6 -86.5t-1 -109.5v-29v-90q0 -32 -23 -49t-59 -17q-34 0 -57 18t-23 50zM268 1001q-6 -148 35 -186
q16 -16 34.5 -25.5t56 -13t59.5 -4t88 -0.5q1 85 1 216.5t1 172.5q-150 4 -203 -20q-32 -13 -51.5 -43t-20.5 -97z" />
    <glyph glyph-name="afii10071" unicode="&#x451;" horiz-adv-x="751"
d="M115 1518q1 43 34 72t76 26q44 -1 73.5 -34.5t27.5 -76.5q-3 -43 -36 -72t-77 -28q-43 3 -72 36t-26 77zM135 84q1 2 4 88.5t5.5 239t2.5 293.5q0 50 -1 99.5t-1.5 92t-1.5 83t-2 74t-2 62.5t-1.5 51t-1 37.5t-0.5 23.5l-1 9q-3 33 23 59q22 25 57 25q40 0 82 0.5t77 1
l68.5 1t59.5 1t45 1t30 0.5l11 1q31 1 46 -20.5t17 -57.5t-12 -59t-45 -23l-8 -1q-8 0 -23 -0.5t-35 -1t-46 -1l-54 -1t-62 -1t-67 -0.5q8 -160 8 -375l209 5q60 0 64 -80q0 -36 -14.5 -59t-45.5 -23l-213 -4q0 -265 -8 -461l322 4h2q31 0 48 -22t17 -56q2 -35 -15.5 -58.5
t-49.5 -23.5q-335 -8 -392 -8q-49 3 -71 25q-25 25 -25 59zM459 1518q1 43 34 72t76 26q43 -1 72.5 -34.5t26.5 -76.5q-1 -42 -34.5 -72t-76.5 -28q-43 3 -72 36t-26 77z" />
    <glyph glyph-name="afii10099" unicode="&#x452;" horiz-adv-x="1058"
d="M41 1231q0 39 12.5 60.5t52.5 21.5h295q41 0 79.5 1t67.5 2t55 2.5l44 2.5t31 2t20 1l7 1q30 3 46 -17t19 -57q8 -83 -51 -88q-1 0 -11 -0.5l-29 -1.5t-45 -2.5t-64.5 -3t-80.5 -2.5q0 -26 -1 -147t-1 -220q161 0 256 -24t150 -80q52 -52 73 -119.5t21 -163.5
q0 -223 -94 -313q-90 -90 -258 -90q-67 0 -70 80q-1 36 15 57.5t45 24.5q68 7 101.5 15t53.5 28q47 47 47 198q0 121 -45 166q-68 65 -293 62v-118.5t-0.5 -115t-0.5 -104.5v-91.5t-0.5 -71t-0.5 -48.5v-17q0 -22 -17.5 -41.5t-61.5 -19.5q-42 0 -61 19.5t-19 41.5v1090
h-222q-32 0 -48.5 22t-16.5 58z" />
    <glyph glyph-name="afii10100" unicode="&#x453;" horiz-adv-x="653"
d="M133 1237q0 36 23 59q22 25 57 25q40 0 80.5 0.5t73.5 1l64 1t54 1t40 1t27 0.5l9 1q30 1 45 -20t17 -58q2 -35 -12 -58.5t-44 -23.5l-7 -1q-7 0 -19.5 -0.5t-29.5 -1t-40.5 -1t-49.5 -1t-58.5 -1t-65.5 -0.5q8 -208 6 -461q0 -75 -8 -641q0 -23 -17.5 -41t-64.5 -18
q-45 0 -62.5 21t-15.5 45l1 12q0 12 0.5 34t1 51.5t1.5 67.5t2 80t1.5 90.5l1 97.5l1 102.5t0.5 103.5t-0.5 99.5t-1 92t-1.5 83t-2 74t-2 62.5t-2 51t-1.5 37.5t-0.5 23.5zM280.5 1468.5q-6.5 29.5 12.5 55.5l153 209q20 27 50 30t57 -18q28 -21 36 -50.5t-11 -56.5
l-154 -208q-19 -27 -62 -27q-25 0 -47 16q-28 20 -34.5 49.5z" />
    <glyph glyph-name="afii10101" unicode="&#x454;" horiz-adv-x="815"
d="M178 698q0 259 64 414q40 100 110 158q79 67 189 67q90 0 147 -32q52 -28 100 -88q19 -28 11 -53.5t-37 -47.5q-59 -49 -100 0q-26 34 -51 48t-70 14q-99 0 -150 -127q-40 -97 -49 -265l231 7q32 0 53 -23t21 -57q0 -35 -18.5 -57.5t-50.5 -22.5l-238 -6
q4 -263 50 -372.5t151 -109.5q101 0 149 80q36 54 103 11q30 -19 40 -42.5t-6 -52.5q-94 -155 -286 -155q-125 0 -205 71q-71 60 -109 174q-49 149 -49 467z" />
    <glyph glyph-name="afii10102" unicode="&#x455;" horiz-adv-x="802"
d="M66 233q-19 60 55 84q30 11 59 2.5t39 -38.5q22 -70 65 -102.5t119 -33.5q83 -3 125 39q55 55 52 197q-3 84 -34.5 133t-131.5 111q-156 98 -219 170q-80 96 -80 219q2 160 94 243q79 70 192 70q145 0 238 -102q21 -26 16.5 -52t-30.5 -49q-63 -56 -107 -6
q-43 49 -117 49q-52 0 -84 -28q-41 -41 -41 -125q0 -64 43 -115.5t181 -136.5q128 -83 180 -160q56 -85 59 -217q6 -211 -96 -313q-86 -86 -231 -86q-146 0 -236 71q-76 64 -110 176z" />
    <glyph glyph-name="afii10103" unicode="&#x456;" horiz-adv-x="448"
d="M143 1262q0 61 80 61q82 0 82 -61v-1196q0 -32 -22 -49t-58 -17t-58 17t-22 49z" />
    <glyph glyph-name="afii10104" unicode="&#x457;" horiz-adv-x="448"
d="M-51 1518q1 43 34 72t76 26q44 -1 73.5 -34.5t27.5 -76.5q-3 -43 -36 -72t-77 -28q-43 3 -72 36t-26 77zM143 1262q0 61 80 61q82 0 82 -61v-1196q0 -32 -22 -49t-58 -17t-58 17t-22 49zM293 1518q1 43 34 72t76 26q43 -1 72.5 -34.5t26.5 -76.5q-1 -42 -34.5 -72
t-76.5 -28q-43 3 -72 36t-26 77z" />
    <glyph glyph-name="afii10105" unicode="&#x458;" horiz-adv-x="765"
d="M90 104q-41 46 23 99q25 23 52.5 24t49.5 -22q1 -1 8.5 -9.5t9.5 -10t9 -8.5t11 -9t11.5 -7t14 -7t15.5 -4.5t19 -3.5t21 -1q41 0 66 20t44 77q37 114 37 456q0 293 -12 461h-301q-31 0 -47.5 23t-16.5 57q0 36 16.5 59t47.5 23h377q31 0 54 -21.5t26 -52.5l2 -24
q2 -24 4.5 -70t5 -107.5t4.5 -154t2 -193.5q0 -363 -45 -505q-68 -207 -264 -207q-51 0 -94 12t-73.5 35t-45 36.5t-31.5 34.5z" />
    <glyph glyph-name="afii10106" unicode="&#x459;" horiz-adv-x="1366"
d="M55 44q-9 24 8 56q7 11 28 40.5t28 41t21.5 40.5t20 53.5t11 64t6.5 86.5q2 106 0 292.5t-5 343t-3 165.5q0 50 23 72t57 22h459q45 0 64.5 -18.5t21.5 -45.5q12 -252 12 -471q160 0 254 -24t149 -80q52 -52 73.5 -120t21.5 -163q0 -222 -95 -313q-92 -92 -311 -88
l-182 2q-31 0 -60 25q-22 25 -22 59q0 17 3 109t6 233.5t3 278.5l-8 456h-305q8 -459 6 -735q0 -58 -5.5 -105.5t-18 -88t-21.5 -66t-30.5 -59t-30.5 -45.5l-35 -46q-19 -25 -54 -27t-57 15q-24 16 -33 40zM799 160q81 -1 139 -0.5t98.5 10.5t61.5 31q47 47 47 198
q0 121 -45 166q-68 65 -293 62q0 -275 -8 -467z" />
    <glyph glyph-name="afii10107" unicode="&#x45a;" horiz-adv-x="1345"
d="M135 59l1 20q0 20 1 55.5t2.5 82t3 105t2.5 119.5t1.5 131t0.5 133q0 50 -0.5 100t-1 93.5t-1.5 85.5t-2 76.5t-2 65t-2 53.5t-1.5 39.5t-0.5 25.5l-1 9q-1 32 20.5 49t57.5 19q35 2 58 -12.5t24 -46.5l1 -8q0 -8 0.5 -23t1.5 -35.5t2 -48t2 -59t2.5 -69.5t2 -77.5
t1.5 -85.5t1 -92l320 12v89v83.5t0.5 75.5t0.5 67.5v57.5t0.5 47.5t0.5 35v22.5v8q0 31 23 46t59 15q36 -2 57.5 -18t20.5 -48v-7q0 -8 -0.5 -22t-0.5 -33v-45t-0.5 -55.5t-0.5 -65.5t-0.5 -74t-0.5 -82.5v-88.5q157 0 252.5 -24.5t149.5 -79.5q52 -52 73 -117t21 -160
q0 -225 -94 -315q-51 -51 -128 -69.5t-183 -18.5h-170q-37 1 -56.5 19.5t-19.5 39.5v10q0 10 -0.5 28.5t-0.5 44t-0.5 58t-1 68.5t-0.5 78.5t-0.5 85t-0.5 90v92.5l-320 -12l-2 -161t-3 -150.5l-3.5 -120.5t-2.5 -86l-1 -31q0 -19 -19.5 -36t-60.5 -17q-42 0 -62 18.5
t-20 40.5zM788 625q1 -65 2 -168.5t1.5 -176.5t1.5 -118q130 -2 192.5 5t91.5 36q47 47 47 200q0 115 -45 160q-34 33 -101.5 47.5t-189.5 14.5z" />
    <glyph glyph-name="afii10108" unicode="&#x45b;" horiz-adv-x="1058"
d="M41 1231q0 39 12.5 60.5t52.5 21.5h295q41 0 79.5 1t67.5 2t55 2.5l44 2.5t31 2t20 1l7 1q30 3 46 -17t19 -57q8 -83 -51 -88q-1 0 -11 -0.5l-29 -1.5t-45 -2.5t-64.5 -3t-80.5 -2.5q0 -26 -1 -150t-1 -217q173 0 261.5 -23t144.5 -81q52 -52 73 -119.5t21 -163.5v-344
q0 -26 -25 -40.5t-55 -14.5q-31 0 -55.5 16t-24.5 41v342q0 72 -10 106.5t-35 59.5q-37 37 -104.5 50.5t-188.5 11.5v-566q0 -24 -17.5 -42.5t-61.5 -18.5q-42 0 -61 19.5t-19 41.5v12v34t-0.5 52t-0.5 68.5v81t-0.5 91.5t-0.5 98v103v104q0 360 2 446h-224q-32 0 -48.5 22
t-16.5 58z" />
    <glyph glyph-name="afii10109" unicode="&#x45c;" horiz-adv-x="892"
d="M135 66l1 12q0 12 0.5 34t1.5 51.5t2 67.5t2 80t2 90.5t1.5 97.5l1 102.5t0.5 103.5t-0.5 100t-1 93.5t-1.5 85t-2 76t-2 64.5t-2 53t-1.5 39.5t-0.5 25.5l-1 9q-1 32 20.5 50t55.5 20q36 2 59.5 -13.5t24.5 -47.5q1 -1 3.5 -59t5 -170.5t3.5 -233.5q103 88 166 170
q45 62 81 138t50 118t14 47q9 31 34 42t59 3q35 -10 53.5 -31.5t11.5 -52.5q-5 -21 -18.5 -61.5t-57.5 -132.5t-98 -165q-32 -46 -78 -92q70 -101 133 -241q104 -235 150 -459q16 -68 -57 -78q-85 -11 -99 45q-3 9 -15.5 58l-25 95t-40 122.5t-60.5 150.5q-55 120 -104 195
q-71 -60 -99 -78q0 -43 -0.5 -89t-1 -87l-1 -81.5t-1.5 -75t-2 -65t-1.5 -55t-1 -42t-0.5 -27.5l-1 -9q-1 -12 -3.5 -19.5t-9.5 -18t-24.5 -16t-44.5 -5.5q-80 0 -80 66zM356.5 1468.5q-6.5 29.5 12.5 55.5l153 209q20 27 50 30t57 -18q28 -21 35.5 -50.5t-11.5 -56.5
l-153 -208q-19 -27 -62 -27q-25 0 -47 16q-28 20 -34.5 49.5z" />
    <glyph glyph-name="afii10110" unicode="&#x45e;" horiz-adv-x="753"
d="M68.5 1664.5q10.5 28.5 40.5 43.5q31 15 61 7.5t45 -36.5q32 -62 69 -89.5t101 -24.5q80 4 116.5 29t71.5 87q17 29 46.5 36t58.5 -9q29 -18 40 -47t-5 -59q-58 -96 -115 -136q-79 -60 -225 -63q-197 0 -301 203q-14 30 -3.5 58.5zM76 1245q-14 59 61 76q83 15 96 -41
q0 -3 10.5 -41.5t34.5 -113t52 -144.5q32 -80 84 -178l79.5 240t54.5 175.5t17 59.5q16 59 94 37q34 -8 51 -28.5t11 -51.5q-2 -10 -22 -78.5t-65.5 -210t-98.5 -287.5l-226 -618q-14 -34 -41.5 -41.5t-60.5 4.5q-71 23 -49 92q7 21 34 95l71 194.5l79 218.5
q-101 165 -162 316q-31 76 -57 156t-36.5 122t-10.5 47z" />
    <glyph glyph-name="afii10193" unicode="&#x45f;"
d="M123 1244v11q0 31 22.5 47.5t57.5 16.5q34 2 57.5 -14t24.5 -48v-7v-21t0.5 -33.5t0.5 -47.5v-61t0.5 -76t0.5 -89.5v-104.5v-119q0 -341 45 -460q21 -52 47.5 -72.5t75.5 -20.5q65 0 90 29q46 46 62 179.5t18 346.5v555q0 32 23 48t59 16q35 0 57 -16t22 -48
q0 -177 -2 -557q0 -271 -26 -418t-101 -221q-50 -50 -116 -65v-144q0 -33 -22.5 -52t-57.5 -19t-57.5 19t-22.5 52v142q-54 11 -94 43q-68 48 -105 145q-55 147 -55 518q0 77 -0.5 149t-1 126t-1 101.5t-0.5 79.5t-0.5 55t-0.5 35z" />
    <glyph glyph-name="afii10050" unicode="&#x490;" horiz-adv-x="653"
d="M133 1237q0 36 23 59q22 25 57 25q178 0 248 2l-2 82q0 32 22 48.5t58 16.5q35 2 57 -14t22 -49l5 -158q2 -35 -12 -58.5t-44 -23.5l-7 -1q-7 0 -19.5 -0.5t-29.5 -1t-40.5 -1t-49.5 -1t-58.5 -1t-65.5 -0.5q8 -208 6 -461q0 -75 -8 -641q0 -23 -17.5 -41t-64.5 -18
q-45 0 -62.5 21t-15.5 45l1 12q0 12 0.5 34t1 51.5t1.5 67.5t2 80t1.5 90.5l1 97.5l1 102.5t0.5 103.5t-0.5 99.5t-1 92t-1.5 83t-2 74t-2 62.5t-2 51t-1.5 37.5t-0.5 23.5z" />
    <glyph glyph-name="afii10098" unicode="&#x491;" horiz-adv-x="653"
d="M133 1237q0 36 23 59q22 25 57 25q178 0 248 2l-2 82q0 32 22 48.5t58 16.5q35 2 57 -14t22 -49l5 -158q2 -35 -12 -58.5t-44 -23.5l-7 -1q-7 0 -19.5 -0.5t-29.5 -1t-40.5 -1t-49.5 -1t-58.5 -1t-65.5 -0.5q8 -208 6 -461q0 -75 -8 -641q0 -23 -17.5 -41t-64.5 -18
q-45 0 -62.5 21t-15.5 45l1 12q0 12 0.5 34t1 51.5t1.5 67.5t2 80t1.5 90.5l1 97.5l1 102.5t0.5 103.5t-0.5 99.5t-1 92t-1.5 83t-2 74t-2 62.5t-2 51t-1.5 37.5t-0.5 23.5z" />
    <glyph glyph-name="uni2000" unicode="&#x2000;" horiz-adv-x="892"
 />
    <glyph glyph-name="uni2001" unicode="&#x2001;" horiz-adv-x="1784"
 />
    <glyph glyph-name="uni2002" unicode="&#x2002;" horiz-adv-x="892"
 />
    <glyph glyph-name="uni2003" unicode="&#x2003;" horiz-adv-x="1784"
 />
    <glyph glyph-name="uni2004" unicode="&#x2004;" horiz-adv-x="594"
 />
    <glyph glyph-name="uni2005" unicode="&#x2005;" horiz-adv-x="446"
 />
    <glyph glyph-name="uni2006" unicode="&#x2006;" horiz-adv-x="297"
 />
    <glyph glyph-name="uni2007" unicode="&#x2007;" horiz-adv-x="297"
 />
    <glyph glyph-name="uni2008" unicode="&#x2008;" horiz-adv-x="223"
 />
    <glyph glyph-name="uni2009" unicode="&#x2009;" horiz-adv-x="356"
 />
    <glyph glyph-name="uni200A" unicode="&#x200a;" horiz-adv-x="99"
 />
    <glyph glyph-name="uni2010" unicode="&#x2010;" horiz-adv-x="600"
d="M41 709q0 33 23.5 56t56.5 23h356q34 0 58 -23t24 -56q0 -34 -24 -57t-58 -23h-356q-33 0 -56.5 23.5t-23.5 56.5z" />
    <glyph glyph-name="uni2011" unicode="&#x2011;" horiz-adv-x="600"
d="M41 709q0 33 23.5 56t56.5 23h356q34 0 58 -23t24 -56q0 -34 -24 -57t-58 -23h-356q-33 0 -56.5 23.5t-23.5 56.5z" />
    <glyph glyph-name="figuredash" unicode="&#x2012;" horiz-adv-x="600"
d="M41 709q0 33 23.5 56t56.5 23h356q34 0 58 -23t24 -56q0 -34 -24 -57t-58 -23h-356q-33 0 -56.5 23.5t-23.5 56.5z" />
    <glyph glyph-name="endash" unicode="&#x2013;" horiz-adv-x="839"
d="M41 709q0 33 23.5 56t56.5 23h596q34 0 58 -23t24 -56q0 -34 -24 -57t-58 -23h-596q-33 0 -56.5 23.5t-23.5 56.5z" />
    <glyph glyph-name="emdash" unicode="&#x2014;" horiz-adv-x="1177"
d="M41 709q0 33 23.5 56t56.5 23h934q34 0 58 -23t24 -56q0 -34 -24 -57t-58 -23h-934q-33 0 -56.5 23.5t-23.5 56.5z" />
    <glyph glyph-name="quoteleft" unicode="&#x2018;" horiz-adv-x="387"
d="M27 1147q0 127 20 214t78 185q20 31 61 31q20 0 41 -12q30 -18 41 -46t-6 -57q-43 -72 -58.5 -137.5t-15.5 -177.5q0 -33 -23.5 -51.5t-58.5 -18.5t-57 18.5t-22 51.5z" />
    <glyph glyph-name="quoteright" unicode="&#x2019;" horiz-adv-x="434"
d="M33 1144q-11 27 6 56q43 72 58.5 138t15.5 178q0 33 23.5 51t58.5 18t57 -18t22 -51q0 -127 -20 -214.5t-78 -185.5q-20 -31 -61 -31q-18 0 -41 13q-30 19 -41 46z" />
    <glyph glyph-name="quotesinglbase" unicode="&#x201a;" horiz-adv-x="499"
d="M135 -212q-11 27 6 56q43 72 58.5 138t15.5 178q0 33 23.5 51t58.5 18t57.5 -18t22.5 -51q0 -127 -20 -214.5t-78 -185.5q-19 -30 -62 -30q-20 0 -41 12q-30 19 -41 46z" />
    <glyph glyph-name="quotedblleft" unicode="&#x201c;" horiz-adv-x="653"
d="M27 1161q0 127 20 214.5t78 185.5q19 30 61 30q20 0 41 -12q30 -19 41 -46t-6 -56q-43 -72 -58.5 -138t-15.5 -178q0 -33 -23.5 -51t-58.5 -18t-57 18t-22 51zM301 1161q0 127 20 214.5t78 185.5q19 30 62 30q20 0 41 -12q30 -19 41 -46t-6 -56q-43 -72 -58.5 -138
t-15.5 -178q0 -33 -23.5 -51t-58.5 -18t-57.5 18t-22.5 51z" />
    <glyph glyph-name="quotedblright" unicode="&#x201d;" horiz-adv-x="708"
d="M33 1144q-11 27 6 56q43 72 58.5 138t15.5 178q0 33 23.5 51t58.5 18t57 -18t22 -51q0 -127 -20 -214.5t-78 -185.5q-20 -31 -61 -31q-18 0 -41 13q-30 19 -41 46zM307 1144q-11 27 6 56q43 72 58.5 138t15.5 178q0 33 23.5 51t58.5 18t57.5 -18t22.5 -51
q0 -127 -20 -214.5t-78 -185.5q-20 -31 -62 -31q-18 0 -41 13q-30 19 -41 46z" />
    <glyph glyph-name="quotedblbase" unicode="&#x201e;" horiz-adv-x="774"
d="M135 -212q-11 27 6 56q43 72 58.5 138t15.5 178q0 33 23.5 51t58.5 18t57.5 -18t22.5 -51q0 -127 -20 -214.5t-78 -185.5q-19 -30 -62 -30q-20 0 -41 12q-30 19 -41 46zM410 -212q-11 27 6 56q43 72 58 137.5t15 178.5q0 33 23.5 51t58.5 18t57.5 -18t22.5 -51
q0 -127 -20 -214.5t-78 -185.5q-19 -30 -61 -30q-20 0 -41 12q-30 19 -41 46z" />
    <glyph glyph-name="ellipsis" unicode="&#x2026;" horiz-adv-x="1212"
d="M166 113q1 43 34 72t76 26q43 -1 72.5 -34.5t26.5 -76.5q-1 -44 -34.5 -73t-76.5 -27q-43 3 -72 36t-26 77zM522 113q1 43 34.5 72t76.5 26q43 -1 72 -34.5t26 -76.5q-1 -44 -34 -73t-76 -27q-43 3 -72.5 36t-26.5 77zM879 113q1 43 34 72t76 26q43 -1 72 -34.5t26 -76.5
q-1 -44 -34 -73t-76 -27q-43 3 -72 36t-26 77z" />
    <glyph glyph-name="uni202F" unicode="&#x202f;" horiz-adv-x="356"
 />
    <glyph glyph-name="guilsinglleft" unicode="&#x2039;" horiz-adv-x="393"
d="M41 709q0 24 14 41l154 208q20 27 49 30.5t55 -17.5q29 -21 36.5 -50.5t-11.5 -56.5l-115 -155l115 -156q19 -27 12.5 -55t-35.5 -49q-24 -17 -47 -17q-42 0 -61 27l-154 209q-12 18 -12 41z" />
    <glyph glyph-name="guilsinglright" unicode="&#x203a;" horiz-adv-x="395"
d="M44.5 919.5q6.5 28.5 33.5 49.5q22 16 49 16q43 0 59 -27l154 -208q14 -17 14 -41t-14 -41l-154 -209q-20 -27 -49.5 -30.5t-56.5 17.5t-35 50.5t10 56.5l115 156l-113 155q-19 27 -12.5 55.5z" />
    <glyph glyph-name="uni205F" unicode="&#x205f;" horiz-adv-x="446"
 />
    <glyph glyph-name="Euro" unicode="&#x20ac;" horiz-adv-x="880"
d="M33 565q0 35 18 57.5t49 22.5h37v53v29h-37q-31 0 -49 22.5t-18 57.5t18 57.5t49 22.5h45q15 129 56 225q40 100 110 158q79 67 189 67q90 0 147 -32q53 -29 101 -88q19 -28 10.5 -53.5t-37.5 -47.5q-59 -49 -100 0q-26 34 -51 48t-70 14q-99 0 -150 -127
q-30 -74 -41 -164h148q32 0 48.5 -22t16.5 -58t-16.5 -58t-48.5 -22h-158v-29v-53h158q32 0 48.5 -22t16.5 -58t-16.5 -58t-48.5 -22h-152q12 -184 57.5 -262t137.5 -78q101 0 149 80q36 54 103 11q30 -19 40 -42.5t-6 -52.5q-94 -155 -286 -155q-125 0 -205 71
q-71 60 -109 174q-35 104 -45 254h-41q-31 0 -49 22.5t-18 57.5z" />
    <glyph glyph-name="uni25FC" unicode="&#x25fc;" horiz-adv-x="1320"
d="M0 0v1321h1321v-1321h-1321z" />
    </font>
</defs>
</svg>
